<?xml version="1.0" encoding="UTF-8" standalone="no"?>
<!DOCTYPE svg PUBLIC "-//W3C//DTD SVG 1.1//EN" "http://www.w3.org/Graphics/SVG/1.1/DTD/svg11.dtd">
<svg width="100%" height="100%" viewBox="0 0 512 512" version="1.1" xmlns="http://www.w3.org/2000/svg" xmlns:xlink="http://www.w3.org/1999/xlink" xml:space="preserve" xmlns:serif="http://www.serif.com/" style="fill-rule:evenodd;clip-rule:evenodd;stroke-linejoin:round;stroke-miterlimit:2;">
    <rect id="Artboard1" x="0" y="0" width="512" height="512" style="fill:none;"/>
    <g id="Artboard11" serif:id="Artboard1">
        <g transform="matrix(0.964844,0,0,0.964844,9,9)">
            <path d="M352,0C440.352,0 512,71.648 512,160L512,352C512,440.352 440.352,512 352,512L160,512C71.648,512 0,440.352 0,352L0,160C0,71.648 71.648,0 160,0L352,0ZM352,48L160,48C98.24,48 48,98.24 48,160L48,352C48,413.76 98.24,464 160,464L352,464C413.76,464 464,413.76 464,352L464,160C464,98.24 413.76,48 352,48ZM256,128C185.312,128 128,185.312 128,256C128,326.688 185.312,384 256,384C326.688,384 384,326.688 384,256C384,185.312 326.688,128 256,128ZM256,336C211.904,336 176,300.096 176,256C176,211.872 211.904,176 256,176C300.096,176 336,211.872 336,256C336,300.096 300.096,336 256,336ZM393.6,101.344C403.013,101.344 410.656,108.987 410.656,118.4C410.656,127.813 403.013,135.456 393.6,135.456C384.187,135.456 376.544,127.813 376.544,118.4C376.544,108.987 384.187,101.344 393.6,101.344Z" style="fill-rule:nonzero;"/>
        </g>
        <path d="M282.316,20.578C282.316,14.188 277.128,9 270.738,9L234.746,9C228.355,9 223.168,14.188 223.168,20.578L223.168,43.734C223.168,50.125 228.355,55.313 234.746,55.313L270.738,55.313C277.128,55.313 282.316,50.125 282.316,43.734L282.316,20.578Z" style="fill:none;"/>
        <g transform="matrix(1,0,0,0.5,0,4.5)">
            <path d="M282.316,20.578C282.316,14.188 279.722,9 276.527,9L228.957,9C225.762,9 223.168,14.188 223.168,20.578L223.168,43.734C223.168,50.125 225.762,55.313 228.957,55.313L276.527,55.313C279.722,55.313 282.316,50.125 282.316,43.734L282.316,20.578Z" style="fill:none;"/>
        </g>
    </g>
</svg>
