<?xml version="1.0" encoding="UTF-8" standalone="no"?>
<!DOCTYPE svg PUBLIC "-//W3C//DTD SVG 1.1//EN" "http://www.w3.org/Graphics/SVG/1.1/DTD/svg11.dtd">
<svg width="100%" height="100%" viewBox="0 0 512 512" version="1.1" xmlns="http://www.w3.org/2000/svg" xmlns:xlink="http://www.w3.org/1999/xlink" xml:space="preserve" xmlns:serif="http://www.serif.com/" style="fill-rule:evenodd;clip-rule:evenodd;stroke-linejoin:round;stroke-miterlimit:2;">
    <g transform="matrix(1,0,0,1,-605,0)">
        <g id="Artboard2" transform="matrix(1.01789,0,0,1.01789,-11.7894,0)">
            <rect x="605.948" y="0" width="503" height="503" style="fill:none;"/>
            <g id="LinkedIn" transform="matrix(0.947884,0,0,0.947884,614.789,8.84124)">
                <path d="M512,311.334L512,500.624L402.262,500.624L402.262,324.011C402.262,279.645 386.389,249.367 346.668,249.367C316.345,249.367 298.301,269.772 290.362,289.511C287.467,296.567 286.722,306.389 286.722,316.267L286.722,500.624L176.947,500.624C176.947,500.624 178.425,201.501 176.947,170.509L286.711,170.509L286.711,217.302C286.488,217.652 286.199,218.029 285.99,218.368L286.711,218.368L286.711,217.302C301.294,194.84 327.339,162.754 385.633,162.754C457.857,162.753 512,209.936 512,311.334ZM62.117,11.378C24.563,11.378 0,36.01 0,68.402C0,100.089 23.853,125.469 60.66,125.469L61.394,125.469C99.675,125.469 123.482,100.094 123.482,68.402C122.761,36.01 99.675,11.378 62.117,11.378ZM6.52,500.624L116.253,500.624L116.253,170.509L6.52,170.509L6.52,500.624Z" style="fill-rule:nonzero;"/>
            </g>
        </g>
    </g>
</svg>
