<?xml version="1.0" encoding="UTF-8" standalone="no"?>
<!DOCTYPE svg PUBLIC "-//W3C//DTD SVG 1.1//EN" "http://www.w3.org/Graphics/SVG/1.1/DTD/svg11.dtd">
<svg width="100%" height="100%" viewBox="0 0 107 123" version="1.1" xmlns="http://www.w3.org/2000/svg" xmlns:xlink="http://www.w3.org/1999/xlink" xml:space="preserve" xmlns:serif="http://www.serif.com/" style="fill-rule:evenodd;clip-rule:evenodd;stroke-miterlimit:2;">
    <g transform="matrix(1,0,0,1,-161.458,-1610.6)">
        <g transform="matrix(1,0,0,2.60044,0,0)">
            <g transform="matrix(0.813607,0,0,0.813607,40.824,118.81)">
                <g transform="matrix(1,0,0,0.38455,5.86861,-1.16191)">
                    <path d="M257.094,1640.68L237.195,1620.31L156.154,1620.31L156.154,1746.73L257.094,1746.73L257.094,1640.68Z" style="fill:none;stroke:black;stroke-width:6.15px;"/>
                </g>
                <g transform="matrix(0.415574,0,0,0.159809,139.619,368.639)">
                    <path d="M245.767,1617.28L261.8,1633.31L245.767,1633.31L245.767,1617.28Z" style="stroke:black;stroke-width:14.79px;stroke-miterlimit:10;"/>
                </g>
                <g transform="matrix(1,0,0,0.38455,0,5.82355)">
                    <rect x="179.151" y="1651.08" width="66.683" height="5.26" style="stroke:black;stroke-width:6.15px;stroke-miterlimit:10;"/>
                </g>
                <g transform="matrix(1,0,0,0.38455,0,14.5344)">
                    <rect x="179.151" y="1651.08" width="66.683" height="5.26" style="stroke:black;stroke-width:6.15px;stroke-miterlimit:10;"/>
                </g>
                <g transform="matrix(1,0,0,0.38455,0,23.2452)">
                    <rect x="179.151" y="1651.08" width="66.683" height="5.26" style="stroke:black;stroke-width:6.15px;stroke-miterlimit:10;"/>
                </g>
            </g>
        </g>
    </g>
</svg>
