<?xml version="1.0" encoding="UTF-8" standalone="no"?>
<!DOCTYPE svg PUBLIC "-//W3C//DTD SVG 1.1//EN" "http://www.w3.org/Graphics/SVG/1.1/DTD/svg11.dtd">
<svg width="100%" height="100%" viewBox="0 0 1000 1339" version="1.1" xmlns="http://www.w3.org/2000/svg" xmlns:xlink="http://www.w3.org/1999/xlink" xml:space="preserve" xmlns:serif="http://www.serif.com/" style="fill-rule:evenodd;clip-rule:evenodd;stroke-linejoin:round;stroke-miterlimit:1.41421;">
    <g transform="matrix(1,0,0,1,-44199,-18415.9)">
        <g transform="matrix(1,0,0,1,9656.55,9936)">
            <g id="vertical" transform="matrix(3.43201,0,0,4.25,17848.9,4044.05)">
                <g transform="matrix(0.582749,3.62818e-17,-4.49292e-17,0.470588,4393.6,-815.023)">
                    <path d="M1307.33,4074.83C1307.33,4005.85 1251.32,3949.83 1182.33,3949.83L932.331,3949.83C863.342,3949.83 807.331,4005.85 807.331,4074.83L807.331,4324.83C807.331,4393.82 863.342,4449.83 932.331,4449.83L1182.33,4449.83C1251.32,4449.83 1307.33,4393.82 1307.33,4324.83L1307.33,4074.83Z" style="fill:rgb(224,80,80);"/>
                    <clipPath id="_clip1">
                        <path d="M1307.33,4074.83C1307.33,4005.85 1251.32,3949.83 1182.33,3949.83L932.331,3949.83C863.342,3949.83 807.331,4005.85 807.331,4074.83L807.331,4324.83C807.331,4393.82 863.342,4449.83 932.331,4449.83L1182.33,4449.83C1251.32,4449.83 1307.33,4393.82 1307.33,4324.83L1307.33,4074.83Z"/>
                    </clipPath>
                    <g clip-path="url(#_clip1)">
                        <g>
                            <g transform="matrix(0.828641,0.828641,-0.828641,0.828641,3695.15,-275.182)">
                                <circle cx="1079.83" cy="4142.33" r="37.5" style="fill:white;"/>
                            </g>
                            <g transform="matrix(1.06066,1.06066,-0.53033,0.53033,-742.707,-2978.89)">
                                <path d="M4137,4979C4137,4962.44 4130.28,4949 4122,4949C4113.72,4949 4107,4962.44 4107,4979L4107,5079C4107,5095.56 4113.72,5109 4122,5109C4130.28,5109 4137,5095.56 4137,5079L4137,4979Z" style="fill:white;"/>
                            </g>
                            <g transform="matrix(1.06066,1.06066,-0.53033,0.53033,-800.156,-2838.01)">
                                <path d="M4137,4979C4137,4962.44 4130.28,4949 4122,4949C4113.72,4949 4107,4962.44 4107,4979L4107,5079C4107,5095.56 4113.72,5109 4122,5109C4130.28,5109 4137,5095.56 4137,5079L4137,4979Z" style="fill:white;"/>
                            </g>
                            <g transform="matrix(1.06066,1.06066,-0.53033,0.53033,-495.204,-2837.47)">
                                <path d="M4137,4979C4137,4962.44 4130.28,4949 4122,4949C4113.72,4949 4107,4962.44 4107,4979L4107,5079C4107,5095.56 4113.72,5109 4122,5109C4130.28,5109 4137,5095.56 4137,5079L4137,4979Z" style="fill:white;"/>
                            </g>
                            <g transform="matrix(1.06066,1.06066,-0.53033,0.53033,-552.664,-2696.6)">
                                <path d="M4137,4979C4137,4962.44 4130.28,4949 4122,4949C4113.72,4949 4107,4962.44 4107,4979L4107,5079C4107,5095.56 4113.72,5109 4122,5109C4130.28,5109 4137,5095.56 4137,5079L4137,4979Z" style="fill:white;"/>
                            </g>
                            <g transform="matrix(0.780256,0.780256,-1.06032,1.06032,3031.84,-4450.2)">
                                <path d="M4397,4964C4397,4955.72 4387.87,4949 4376.62,4949L4127.38,4949C4116.13,4949 4107,4955.72 4107,4964C4107,4972.28 4116.13,4979 4127.38,4979L4376.62,4979C4387.87,4979 4397,4972.28 4397,4964Z" style="fill:white;"/>
                            </g>
                            <g transform="matrix(0.780256,0.780256,-1.06032,1.06032,2974.39,-4309.32)">
                                <path d="M4397,4964C4397,4955.72 4387.87,4949 4376.62,4949L4127.38,4949C4116.13,4949 4107,4955.72 4107,4964C4107,4972.28 4116.13,4979 4127.38,4979L4376.62,4979C4387.87,4979 4397,4972.28 4397,4964Z" style="fill:white;"/>
                            </g>
                        </g>
                    </g>
                </g>
                <g transform="matrix(0.592613,0,0,0.592613,2268.84,555.461)">
                    <g transform="matrix(0.307397,0,0,0.235294,4083.69,-124.61)">
                        <path d="M1552.88,5910.53C1552.88,5888.46 1535.89,5870.53 1514.97,5870.53C1494.04,5870.53 1477.05,5888.46 1477.05,5910.53L1477.05,6250.53C1477.05,6272.61 1494.04,6290.53 1514.97,6290.53C1535.89,6290.53 1552.88,6272.61 1552.88,6250.53L1552.88,5910.53Z" style="fill:white;"/>
                    </g>
                    <g transform="matrix(0.307397,0,0,0.235294,4235.2,-124.61)">
                        <path d="M1552.88,5910.53C1552.88,5888.46 1535.89,5870.53 1514.97,5870.53C1494.04,5870.53 1477.05,5888.46 1477.05,5910.53L1477.05,6250.53C1477.05,6272.61 1494.04,6290.53 1514.97,6290.53C1535.89,6290.53 1552.88,6272.61 1552.88,6250.53L1552.88,5910.53Z" style="fill:white;"/>
                    </g>
                    <g transform="matrix(0.291374,0,0,0.235294,3997.85,-124.692)">
                        <path d="M1992.88,6030.39C1993.21,5942.3 2064.72,5871 2152.88,5871C2241.04,5871 2312.55,5942.3 2312.88,6030.39C2312.88,6030.44 2312.88,6030.48 2312.88,6030.53L2312.88,6250.88C2312.88,6272.96 2294.96,6290.88 2272.88,6290.88C2250.81,6290.88 2232.88,6272.96 2232.88,6250.88L2232.88,6031C2232.88,5986.82 2197.07,5951 2152.88,5951C2108.7,5951 2072.88,5986.82 2072.88,6031L2072.88,6250.88C2072.88,6272.96 2054.96,6290.88 2032.88,6290.88C2010.81,6290.88 1992.88,6272.96 1992.88,6250.88L1992.88,6031C1992.88,6031 1992.88,6031 1992.88,6031L1992.88,6030.53C1992.88,6030.48 1992.88,6030.44 1992.88,6030.39Z" style="fill:white;"/>
                    </g>
                    <g transform="matrix(0.291374,0,0,0.235294,3997.85,-124.61)">
                        <path d="M2637.88,5950.53C2613.05,5950.53 2592.88,5970.7 2592.88,5995.53C2592.88,6020.37 2613.05,6040.53 2637.88,6040.53L2707.88,6040.53L2708.29,6040.53C2777.09,6040.75 2832.88,6096.68 2832.88,6165.53C2832.88,6234.52 2776.87,6290.53 2707.88,6290.53C2705.75,6290.53 2572.8,6290.37 2572.8,6290.37C2550.77,6290.37 2532.88,6272.49 2532.88,6250.45C2532.88,6228.42 2550.77,6210.53 2572.8,6210.53L2707.88,6210.53C2732.72,6210.53 2752.88,6190.37 2752.88,6165.53C2752.88,6140.7 2732.72,6120.53 2707.88,6120.53L2637.48,6120.53C2568.68,6120.31 2512.88,6064.39 2512.88,5995.53C2512.88,5926.54 2568.89,5870.53 2637.88,5870.53C2640.02,5870.53 2772.96,5870.69 2772.96,5870.69C2795,5870.69 2812.88,5888.58 2812.88,5910.61C2812.88,5932.65 2795,5950.53 2772.96,5950.53L2637.88,5950.53Z" style="fill:white;"/>
                    </g>
                    <g transform="matrix(0.291374,0,0,0.235294,-5640.68,-1048.32)">
                        <path d="M34624.6,10200.1C34617.3,10209.9 34605.6,10216.3 34592.4,10216.3C34570.3,10216.3 34552.4,10198.4 34552.4,10176.3L34552.4,9836.32C34552.4,9814.24 34570.3,9796.32 34592.4,9796.32C34614.5,9796.32 34632.4,9814.24 34632.4,9836.32L34632.4,9921.32C34632.4,9946.16 34652.6,9966.32 34677.4,9966.32C34702.3,9966.32 34722.4,9946.16 34722.4,9921.32L34722.4,9836.32C34722.4,9814.29 34740.3,9796.4 34762.3,9796.4C34784.4,9796.4 34802.3,9814.29 34802.3,9836.32C34802.3,9836.32 34802.4,9919.18 34802.4,9921.32C34802.4,9944.19 34796.3,9965.63 34785.5,9984.08C34837,10010.5 34872.2,10064.1 34872.4,10125.8C34872.4,10125.9 34872.4,10125.9 34872.4,10126L34872.4,10176.3C34872.4,10198.4 34854.5,10216.3 34832.4,10216.3C34810.3,10216.3 34792.4,10198.4 34792.4,10176.3L34792.4,10126.4C34792.4,10082.3 34756.6,10046.4 34712.4,10046.4C34668.2,10046.4 34632.4,10082.3 34632.4,10126.4L34632.4,10176.3C34632.4,10185.2 34629.5,10193.4 34624.6,10200.1Z" style="fill:white;"/>
                    </g>
                </g>
            </g>
        </g>
    </g>
</svg>
