<?xml version="1.0" encoding="UTF-8" standalone="no"?>
<!DOCTYPE svg PUBLIC "-//W3C//DTD SVG 1.1//EN" "http://www.w3.org/Graphics/SVG/1.1/DTD/svg11.dtd">
<svg width="100%" height="100%" viewBox="0 0 1000 1000" version="1.1" xmlns="http://www.w3.org/2000/svg" xmlns:xlink="http://www.w3.org/1999/xlink" xml:space="preserve" xmlns:serif="http://www.serif.com/" style="fill-rule:evenodd;clip-rule:evenodd;stroke-linejoin:round;stroke-miterlimit:1.41421;">
    <g transform="matrix(1,0,0,1,-44199,-18415.9)">
        <g transform="matrix(3.43201,0,0,4.25,27505.4,13980.1)">
            <g transform="matrix(0.582749,3.62818e-17,-4.49292e-17,0.470588,4393.6,-815.023)">
                <path d="M1307.33,4074.83C1307.33,4005.85 1251.32,3949.83 1182.33,3949.83L932.331,3949.83C863.342,3949.83 807.331,4005.85 807.331,4074.83L807.331,4324.83C807.331,4393.82 863.342,4449.83 932.331,4449.83L1182.33,4449.83C1251.32,4449.83 1307.33,4393.82 1307.33,4324.83L1307.33,4074.83Z" style="fill:rgb(224,80,80);"/>
                <clipPath id="_clip1">
                    <path d="M1307.33,4074.83C1307.33,4005.85 1251.32,3949.83 1182.33,3949.83L932.331,3949.83C863.342,3949.83 807.331,4005.85 807.331,4074.83L807.331,4324.83C807.331,4393.82 863.342,4449.83 932.331,4449.83L1182.33,4449.83C1251.32,4449.83 1307.33,4393.82 1307.33,4324.83L1307.33,4074.83Z"/>
                </clipPath>
                <g clip-path="url(#_clip1)">
                    <g>
                        <g transform="matrix(0.828641,0.828641,-0.828641,0.828641,3695.15,-275.182)">
                            <circle cx="1079.83" cy="4142.33" r="37.5" style="fill:white;"/>
                        </g>
                        <g transform="matrix(1.06066,1.06066,-0.53033,0.53033,-742.707,-2978.89)">
                            <path d="M4137,4979C4137,4962.44 4130.28,4949 4122,4949C4113.72,4949 4107,4962.44 4107,4979L4107,5079C4107,5095.56 4113.72,5109 4122,5109C4130.28,5109 4137,5095.56 4137,5079L4137,4979Z" style="fill:white;"/>
                        </g>
                        <g transform="matrix(1.06066,1.06066,-0.53033,0.53033,-800.156,-2838.01)">
                            <path d="M4137,4979C4137,4962.44 4130.28,4949 4122,4949C4113.72,4949 4107,4962.44 4107,4979L4107,5079C4107,5095.56 4113.72,5109 4122,5109C4130.28,5109 4137,5095.56 4137,5079L4137,4979Z" style="fill:white;"/>
                        </g>
                        <g transform="matrix(1.06066,1.06066,-0.53033,0.53033,-495.204,-2837.47)">
                            <path d="M4137,4979C4137,4962.44 4130.28,4949 4122,4949C4113.72,4949 4107,4962.44 4107,4979L4107,5079C4107,5095.56 4113.72,5109 4122,5109C4130.28,5109 4137,5095.56 4137,5079L4137,4979Z" style="fill:white;"/>
                        </g>
                        <g transform="matrix(1.06066,1.06066,-0.53033,0.53033,-552.664,-2696.6)">
                            <path d="M4137,4979C4137,4962.44 4130.28,4949 4122,4949C4113.72,4949 4107,4962.44 4107,4979L4107,5079C4107,5095.56 4113.72,5109 4122,5109C4130.28,5109 4137,5095.56 4137,5079L4137,4979Z" style="fill:white;"/>
                        </g>
                        <g transform="matrix(0.780256,0.780256,-1.06032,1.06032,3031.84,-4450.2)">
                            <path d="M4397,4964C4397,4955.72 4387.87,4949 4376.62,4949L4127.38,4949C4116.13,4949 4107,4955.72 4107,4964C4107,4972.28 4116.13,4979 4127.38,4979L4376.62,4979C4387.87,4979 4397,4972.28 4397,4964Z" style="fill:white;"/>
                        </g>
                        <g transform="matrix(0.780256,0.780256,-1.06032,1.06032,2974.39,-4309.32)">
                            <path d="M4397,4964C4397,4955.72 4387.87,4949 4376.62,4949L4127.38,4949C4116.13,4949 4107,4955.72 4107,4964C4107,4972.28 4116.13,4979 4127.38,4979L4376.62,4979C4387.87,4979 4397,4972.28 4397,4964Z" style="fill:white;"/>
                        </g>
                    </g>
                </g>
            </g>
        </g>
    </g>
</svg>
