<?xml version="1.0" encoding="UTF-8" standalone="no"?><!DOCTYPE svg PUBLIC "-//W3C//DTD SVG 1.1//EN" "http://www.w3.org/Graphics/SVG/1.1/DTD/svg11.dtd"><svg width="100%" height="100%" viewBox="0 0 97 97" version="1.1" xmlns="http://www.w3.org/2000/svg" xmlns:xlink="http://www.w3.org/1999/xlink" xml:space="preserve" xmlns:serif="http://www.serif.com/" style="fill-rule:evenodd;clip-rule:evenodd;stroke-linejoin:round;stroke-miterlimit:1.41421;"><rect id="_2colOL" serif:id="2colOL" x="0.708" y="0.493" width="96" height="96" style="fill:#fff;"/><path d="M88.708,23.493l-57,0l0,-13l57,0l0,13Zm-54,-10l0,7l51,0l0,-7l-51,0Z"/><path d="M26.708,86.493l-18,0l0,-76l18,0l0,76Zm-15,-73l0,70l12,0l0,-70l-12,0Z"/><path d="M88.708,86.493l-57,0l0,-58l57,0l0,58Zm-54,-55l0,52l51,0l0,-52l-51,0Z"/></svg>