<?xml version="1.0" encoding="UTF-8" standalone="no"?>
<!DOCTYPE svg PUBLIC "-//W3C//DTD SVG 1.1//EN" "http://www.w3.org/Graphics/SVG/1.1/DTD/svg11.dtd">
<svg width="100%" height="100%" viewBox="0 0 173 175" version="1.1" xmlns="http://www.w3.org/2000/svg" xmlns:xlink="http://www.w3.org/1999/xlink" xml:space="preserve" xmlns:serif="http://www.serif.com/" style="fill-rule:evenodd;clip-rule:evenodd;stroke-linejoin:round;stroke-miterlimit:1.41421;">
    <g transform="matrix(1,0,0,1,-6385.76,-16071.8)">
        <g transform="matrix(1,0,0,1,4309.6,14253.1)">
            <g transform="matrix(1,0,0,1,-4593.8,-14254.6)">
                <path d="M6824.3,16196.1C6824.3,16196.1 6806.14,16219.7 6806.14,16229.8C6806.14,16239.8 6814.28,16248 6824.3,16248C6834.32,16248 6842.45,16239.8 6842.45,16229.8C6842.45,16219.7 6824.3,16196.1 6824.3,16196.1Z"/>
            </g>
        </g>
        <g transform="matrix(1,0,0,1,4309.6,14253.1)">
            <g transform="matrix(0.565062,0.565062,-0.565062,0.565062,7476.74,-11029.1)">
                <path d="M6806.14,16147.7C6806.14,16130.4 6792.12,16116.4 6774.86,16116.4L6712.29,16116.4C6695.02,16116.4 6681,16130.4 6681,16147.7L6681,16210.2C6681,16227.5 6695.02,16241.5 6712.29,16241.5L6774.86,16241.5C6792.12,16241.5 6806.14,16227.5 6806.14,16210.2L6806.14,16147.7Z" style="fill:white;"/>
            </g>
        </g>
        <g transform="matrix(1,0,0,1,4309.6,14253.1)">
            <g transform="matrix(0.565062,0.565062,-0.565062,0.565062,7476.74,-11029.1)">
                <path d="M6682.59,16117.2C6690.43,16109.7 6701.06,16105.2 6711.99,16105.1C6733.05,16105 6754.11,16105 6775.17,16105.1C6797.25,16105.5 6817.17,16124.6 6817.4,16147.1L6817.4,16147.3C6817.47,16168.4 6817.4,16189.5 6817.4,16210.5C6817.04,16232.5 6798.3,16252.4 6775.15,16252.8C6754.09,16252.8 6733.03,16252.8 6711.97,16252.8C6690.28,16252.4 6669.97,16233.9 6669.74,16210.8L6669.74,16210.5C6669.67,16189.5 6669.6,16168.4 6669.74,16147.4C6669.85,16136 6674.48,16125.1 6682.59,16117.2ZM6698.04,16133.6C6694.44,16137.3 6692.32,16142.3 6692.27,16147.5C6692.13,16168.5 6691.92,16189.5 6692.27,16210.5C6692.37,16220.5 6700.81,16229.8 6711.53,16230.2C6711.75,16230.2 6711.97,16230.2 6712.19,16230.2C6733.17,16230.3 6754.14,16230.6 6775.11,16230.2C6785.08,16230.1 6794.53,16221.7 6794.87,16210.9C6794.87,16210.7 6794.87,16210.5 6794.88,16210.3C6794.88,16189.4 6795.22,16168.4 6794.88,16147.4C6794.77,16137.3 6785.92,16127.8 6774.95,16127.6C6753.93,16127.6 6732.9,16127.4 6711.89,16127.6C6706.74,16127.8 6701.7,16129.9 6698.04,16133.6Z" style="fill-rule:nonzero;"/>
            </g>
        </g>
        <g transform="matrix(1,0,0,1,4309.6,14253.1)">
            <g transform="matrix(1,0,0,1,-4597.47,-14248.5)">
                <path d="M6799.41,16145.4L6786.68,16158.1L6708.49,16079.9L6721.21,16067.2C6747.28,16093.3 6773.34,16119.3 6799.41,16145.4Z" style="fill-rule:nonzero;"/>
            </g>
        </g>
        <g transform="matrix(1,0,0,1,4309.6,14253.1)">
            <g transform="matrix(1,0,0,1.00596,-4596.68,-14351.8)">
                <path d="M6677.56,16179L6806.14,16179L6741.85,16243.3L6677.56,16179Z"/>
            </g>
        </g>
    </g>
</svg>
