<?xml version="1.0" encoding="UTF-8" standalone="no"?>
<!DOCTYPE svg PUBLIC "-//W3C//DTD SVG 1.1//EN" "http://www.w3.org/Graphics/SVG/1.1/DTD/svg11.dtd">
<svg width="100%" height="100%" viewBox="0 0 395 64" version="1.1" xmlns="http://www.w3.org/2000/svg" xmlns:xlink="http://www.w3.org/1999/xlink" xml:space="preserve" xmlns:serif="http://www.serif.com/" style="fill-rule:evenodd;clip-rule:evenodd;stroke-linecap:round;stroke-linejoin:round;stroke-miterlimit:1.5;">
    <g transform="matrix(1,0,0,1,-5688.82,-16175)">
        <g id="Artboard8" transform="matrix(0.775132,0,0,0.359436,1271.61,10360.9)">
            <rect x="5698.65" y="16175.5" width="508.946" height="176.685" style="fill:none;"/>
            <clipPath id="_clip1">
                <rect x="5698.65" y="16175.5" width="508.946" height="176.685"/>
            </clipPath>
            <g clip-path="url(#_clip1)">
                <g transform="matrix(2.17632,0,0,3.64932,-8680.69,-43129.1)">
                    <path d="M6613.46,16280.5C6616.22,16280.5 6618.68,16283.4 6618.57,16287.6C6618.56,16287.8 6618.55,16288 6618.53,16288.2C6618.41,16289.8 6617.77,16291.4 6615.96,16290.8C6615.96,16290.8 6617.08,16292.2 6618.09,16291.9C6618.65,16291.7 6618.26,16289.8 6619.08,16288.4C6620.11,16286.7 6622.38,16286.6 6623.53,16288.2C6624.39,16289.4 6624.51,16291.3 6623.85,16292.7C6623.85,16292.7 6633.66,16290.9 6638.62,16284.7C6639.69,16283.4 6640.37,16280.9 6640.37,16280.9C6640.89,16280.3 6641.22,16280.5 6641.22,16280.5L6641.74,16280.9C6642.02,16281.8 6641.86,16281.8 6641.86,16281.8C6640.98,16287.2 6635.79,16290.3 6631.05,16292.5C6628.53,16293.7 6625.97,16294.8 6623.27,16294.9C6622.54,16294.9 6621.69,16294.7 6621.53,16293.8C6621.53,16293.8 6621.46,16292.9 6622.16,16292.1C6622.98,16291 6622.77,16288.6 6621.01,16289.3C6619.58,16289.8 6620.91,16294.1 6617.76,16294.1C6615.43,16294 6613.03,16290.5 6614.8,16289C6615.46,16288.4 6616.79,16288.9 6616.79,16288.9C6617.17,16287 6616.91,16284.7 6615.69,16283.5C6613.05,16280.9 6608.37,16284.1 6608.98,16288.6C6609.62,16293.3 6613.07,16297.1 6617.01,16297.2L6839.39,16297.2L6839.39,16253L6608.98,16253C6608.89,16256.5 6608.84,16260 6608.84,16263.5L6608.84,16278.1L6608.6,16278.8L6608.02,16279.1L6607.44,16278.8L6607.19,16278.1C6607.19,16269.5 6607.11,16260.9 6607.34,16252.4C6607.34,16252.4 6607.39,16250.9 6607.39,16250.9L6841.04,16250.9L6841.04,16299.3C6766.32,16299.3 6691.61,16299.9 6616.89,16299.3C6612.29,16299.2 6607.87,16294.6 6607.3,16288.5C6606.92,16284.3 6609.88,16280.4 6613.46,16280.5ZM6615.65,16290.8C6615.65,16290.8 6615.65,16290.8 6615.65,16290.8Z" style="fill-rule:nonzero;"/>
                </g>
                <g transform="matrix(0.576797,2.20519,-1.02034,1.24659,18370.7,-19560.6)">
                    <path d="M7026.54,16270L7019,16315.1L7003.99,16315.1L7026.54,16270L7049.09,16315.1L7024.97,16315.1L7026.54,16270" style="fill:none;stroke:black;stroke-width:3.06px;"/>
                </g>
                <g transform="matrix(1.02034,-1.24659,0.576797,2.20519,-10767.4,-10924.6)">
                    <path d="M7003.99,16291L6997.98,16296" style="fill:none;stroke:black;stroke-width:3.06px;"/>
                </g>
                <g transform="matrix(1.02034,-1.24659,0.576797,2.20519,-10767.4,-10924.6)">
                    <path d="M6998.52,16295L7003.99,16285.1" style="fill:none;stroke:black;stroke-width:3.06px;"/>
                </g>
                <g transform="matrix(2.29643,0,0,4.9523,-12108.9,-64127.2)">
                    <text x="7824.13px" y="16239.2px" style="font-family:'SairaCondensed-Bold', 'Saira Condensed';font-weight:700;font-stretch:condensed;font-size:18px;">ntoba<tspan x="7861.03px " y="16239.2px ">t</tspan>@gmail.com</text>
                </g>
            </g>
        </g>
    </g>
</svg>
