<?xml version="1.0" encoding="UTF-8" standalone="no"?>
<!DOCTYPE svg PUBLIC "-//W3C//DTD SVG 1.1//EN" "http://www.w3.org/Graphics/SVG/1.1/DTD/svg11.dtd">
<svg width="100%" height="100%" viewBox="0 0 395 64" version="1.1" xmlns="http://www.w3.org/2000/svg" xmlns:xlink="http://www.w3.org/1999/xlink" xml:space="preserve" xmlns:serif="http://www.serif.com/" style="fill-rule:evenodd;clip-rule:evenodd;stroke-linecap:round;stroke-linejoin:round;stroke-miterlimit:1.5;">
    <g transform="matrix(1,0,0,1,-5688.82,-16175)">
        <g id="Artboard8" transform="matrix(0.775132,0,0,0.359436,1271.61,10360.9)">
            <rect x="5698.65" y="16175.5" width="508.946" height="176.685" style="fill:none;"/>
            <clipPath id="_clip1">
                <rect x="5698.65" y="16175.5" width="508.946" height="176.685"/>
            </clipPath>
            <g clip-path="url(#_clip1)">
                <g transform="matrix(2.17632,0,0,3.64932,-8680.69,-43129.1)">
                    <path d="M6613.46,16280.5C6616.22,16280.5 6618.68,16283.4 6618.57,16287.6C6618.56,16287.8 6618.55,16288 6618.53,16288.2C6618.41,16289.8 6617.77,16291.4 6615.96,16290.8C6615.96,16290.8 6617.08,16292.2 6618.09,16291.9C6618.65,16291.7 6618.26,16289.8 6619.08,16288.4C6620.11,16286.7 6622.38,16286.6 6623.53,16288.2C6624.39,16289.4 6624.51,16291.3 6623.85,16292.7C6623.85,16292.7 6633.66,16290.9 6638.62,16284.7C6639.69,16283.4 6640.37,16280.9 6640.37,16280.9C6640.89,16280.3 6641.22,16280.5 6641.22,16280.5L6641.74,16280.9C6642.02,16281.8 6641.86,16281.8 6641.86,16281.8C6640.98,16287.2 6635.79,16290.3 6631.05,16292.5C6628.53,16293.7 6625.97,16294.8 6623.27,16294.9C6622.54,16294.9 6621.69,16294.7 6621.53,16293.8C6621.53,16293.8 6621.46,16292.9 6622.16,16292.1C6622.98,16291 6622.77,16288.6 6621.01,16289.3C6619.58,16289.8 6620.91,16294.1 6617.76,16294.1C6615.43,16294 6613.03,16290.5 6614.8,16289C6615.46,16288.4 6616.79,16288.9 6616.79,16288.9C6617.17,16287 6616.91,16284.7 6615.69,16283.5C6613.05,16280.9 6608.37,16284.1 6608.98,16288.6C6609.62,16293.3 6613.07,16297.1 6617.01,16297.2L6839.39,16297.2L6839.39,16253L6608.98,16253C6608.89,16256.5 6608.84,16260 6608.84,16263.5L6608.84,16278.1L6608.6,16278.8L6608.02,16279.1L6607.44,16278.8L6607.19,16278.1C6607.19,16269.5 6607.11,16260.9 6607.34,16252.4C6607.34,16252.4 6607.39,16250.9 6607.39,16250.9L6841.04,16250.9L6841.04,16299.3C6766.32,16299.3 6691.61,16299.9 6616.89,16299.3C6612.29,16299.2 6607.87,16294.6 6607.3,16288.5C6606.92,16284.3 6609.88,16280.4 6613.46,16280.5ZM6615.65,16290.8C6615.65,16290.8 6615.65,16290.8 6615.65,16290.8Z" style="fill-rule:nonzero;"/>
                </g>
                <g transform="matrix(0.576797,2.20519,-1.02034,1.24659,18370.7,-19560.6)">
                    <path d="M7026.54,16270L7019,16315.1L7003.99,16315.1L7026.54,16270L7049.09,16315.1L7024.97,16315.1L7026.54,16270" style="fill:none;stroke:black;stroke-width:3.06px;"/>
                </g>
                <g transform="matrix(1.02034,-1.24659,0.576797,2.20519,-10767.4,-10924.6)">
                    <path d="M7003.99,16291L6997.98,16296" style="fill:none;stroke:black;stroke-width:3.06px;"/>
                </g>
                <g transform="matrix(1.02034,-1.24659,0.576797,2.20519,-10767.4,-10924.6)">
                    <path d="M6998.52,16295L7003.99,16285.1" style="fill:none;stroke:black;stroke-width:3.06px;"/>
                </g>
                <g transform="matrix(1.2901,0,0,2.78214,-1640.51,-28825.5)">
                    <path d="M5919.23,16215.6C5918.74,16217 5917.65,16217.6 5915.96,16217.6C5914.89,16217.6 5914.06,16217.4 5913.48,16216.9C5912.89,16216.4 5912.48,16215.5 5912.24,16214.4C5912.01,16213.2 5911.89,16211.6 5911.89,16209.4C5911.89,16207.2 5912.02,16205.5 5912.28,16204.3C5912.53,16203.1 5912.95,16202.3 5913.52,16201.8C5914.1,16201.3 5914.92,16201.1 5915.99,16201.1C5916.74,16201.1 5917.42,16201.3 5918.03,16201.6C5918.64,16201.9 5919.07,16202.5 5919.32,16203.3L5919.58,16203.3L5919.71,16201.4L5923.62,16201.4L5923.62,16215.7C5923.62,16218 5923.5,16219.6 5923.26,16220.8C5923.03,16221.9 5922.47,16222.7 5921.6,16223.3C5920.72,16223.9 5919.33,16224.2 5917.43,16224.2C5916.66,16224.2 5915.85,16224.2 5915,16224.1C5914.14,16224 5913.45,16224 5912.91,16223.9L5912.91,16220.7C5913.3,16220.7 5913.58,16220.7 5913.75,16220.7L5916.47,16220.7C5917.48,16220.7 5918.18,16220.7 5918.57,16220.5C5918.97,16220.3 5919.22,16220 5919.32,16219.5C5919.43,16219 5919.48,16218.1 5919.48,16216.9L5919.48,16215.6L5919.23,16215.6ZM5900.68,16213.7C5900.44,16214.3 5900.07,16214.8 5899.57,16215.1C5899.07,16215.4 5898.5,16215.5 5897.86,16215.5C5896.72,16215.5 5895.92,16215.2 5895.45,16214.5C5894.98,16213.8 5894.75,16212.8 5894.75,16211.3C5894.75,16210.2 5894.86,16209.3 5895.07,16208.7C5895.28,16208.1 5895.64,16207.7 5896.13,16207.4C5896.62,16207.1 5897.31,16207 5898.21,16207C5898.94,16207 5899.81,16207 5900.84,16207.1L5900.84,16206.5C5900.84,16205.7 5900.78,16205.1 5900.68,16204.8C5900.57,16204.5 5900.36,16204.3 5900.05,16204.2C5899.74,16204.2 5899.19,16204.1 5898.4,16204.1C5897.35,16204.1 5896.35,16204.2 5895.39,16204.3L5895.39,16201.5C5896.88,16201.2 5898.25,16201.1 5899.49,16201.1C5900.86,16201.1 5901.88,16201.3 5902.57,16201.6C5903.25,16202 5903.71,16202.6 5903.96,16203.4C5904.21,16204.2 5904.33,16205.3 5904.33,16206.7L5904.33,16213.4L5905.71,16213.4C5906.18,16213.4 5906.51,16213.4 5906.7,16213.2C5906.89,16213 5907.03,16212.6 5907.1,16211.9C5907.18,16211.2 5907.21,16210 5907.21,16208.3C5907.21,16205.1 5907.15,16202.9 5907.04,16201.6C5906.92,16200.3 5906.62,16199.3 5906.15,16198.6C5905.69,16198 5904.88,16197.6 5903.75,16197.4C5903.28,16197.4 5902.68,16197.3 5901.94,16197.3C5901.2,16197.3 5900.41,16197.3 5899.55,16197.3C5897.61,16197.3 5896.3,16197.3 5895.61,16197.4C5894.4,16197.5 5893.54,16197.9 5893.03,16198.5C5892.53,16199.1 5892.22,16200.1 5892.11,16201.4C5891.99,16202.7 5891.93,16205 5891.93,16208.3C5891.93,16211.8 5892,16214.2 5892.15,16215.6C5892.3,16216.9 5892.7,16217.8 5893.36,16218.4C5894.01,16218.9 5895.15,16219.2 5896.8,16219.3C5897.27,16219.3 5898.19,16219.3 5899.55,16219.3C5902.05,16219.3 5903.65,16219.3 5904.33,16219.2L5904.33,16221.1C5903.65,16221.1 5902.05,16221.2 5899.55,16221.2C5896.33,16221.2 5894.09,16220.9 5892.83,16220.3C5891.57,16219.7 5890.78,16218.7 5890.45,16217C5890.13,16215.4 5889.97,16212.5 5889.97,16208.3C5889.97,16204 5890.13,16201.1 5890.45,16199.5C5890.78,16197.9 5891.57,16196.8 5892.83,16196.2C5894.09,16195.7 5896.33,16195.4 5899.55,16195.4C5902.78,16195.4 5905.02,16195.7 5906.28,16196.2C5907.54,16196.8 5908.33,16197.9 5908.65,16199.5C5908.97,16201.1 5909.14,16204 5909.14,16208.3C5909.14,16210.5 5909.02,16212.2 5908.78,16213.1C5908.55,16214.1 5908.2,16214.7 5907.76,16215C5907.31,16215.2 5906.56,16215.3 5905.51,16215.3L5901,16215.3L5900.87,16213.7L5900.68,16213.7ZM5856.14,16217.7L5852.23,16217.7L5852.23,16193.9L5856.36,16193.9L5856.36,16203.1L5856.59,16203.1C5857.1,16201.8 5858.21,16201.1 5859.92,16201.1C5860.99,16201.1 5861.81,16201.4 5862.39,16201.9C5862.96,16202.4 5863.37,16203.3 5863.61,16204.5C5863.84,16205.7 5863.96,16207.4 5863.96,16209.6C5863.96,16211.8 5863.83,16213.5 5863.57,16214.7C5863.32,16215.9 5862.9,16216.8 5862.31,16217.2C5861.72,16217.7 5860.9,16218 5859.86,16218C5858.08,16218 5856.97,16217.2 5856.52,16215.8L5856.27,16215.8L5856.14,16217.7ZM5843.77,16218C5841.94,16218 5840.61,16217.7 5839.8,16217.2C5838.99,16216.8 5838.46,16216 5838.23,16214.9C5837.99,16213.8 5837.88,16212 5837.88,16209.5C5837.88,16207.1 5837.99,16205.3 5838.23,16204.2C5838.46,16203.1 5838.99,16202.3 5839.8,16201.8C5840.61,16201.3 5841.94,16201.1 5843.77,16201.1C5845.61,16201.1 5846.93,16201.3 5847.74,16201.8C5848.56,16202.3 5849.08,16203.1 5849.32,16204.2C5849.55,16205.3 5849.67,16207.1 5849.67,16209.5C5849.67,16212 5849.55,16213.8 5849.32,16214.9C5849.08,16216 5848.56,16216.8 5847.74,16217.2C5846.93,16217.7 5845.61,16218 5843.77,16218ZM6000,16218C5998.16,16218 5996.84,16217.7 5996.03,16217.2C5995.22,16216.8 5994.69,16216 5994.46,16214.9C5994.22,16213.8 5994.11,16212 5994.11,16209.5C5994.11,16207.1 5994.22,16205.3 5994.46,16204.2C5994.69,16203.1 5995.22,16202.3 5996.03,16201.8C5996.84,16201.3 5998.16,16201.1 6000,16201.1C6001.84,16201.1 6003.16,16201.3 6003.98,16201.8C6004.79,16202.3 6005.31,16203.1 6005.55,16204.2C6005.78,16205.3 6005.9,16207.1 6005.9,16209.5C6005.9,16212 6005.78,16213.8 6005.55,16214.9C6005.31,16216 6004.79,16216.8 6003.98,16217.2C6003.16,16217.7 6001.84,16218 6000,16218ZM5992.18,16217.5C5991.09,16217.8 5989.9,16218 5988.6,16218C5987.02,16218 5985.84,16217.7 5985.07,16217.1C5984.3,16216.5 5983.79,16215.6 5983.55,16214.4C5983.3,16213.3 5983.18,16211.6 5983.18,16209.5C5983.18,16207.4 5983.31,16205.8 5983.58,16204.6C5983.85,16203.4 5984.37,16202.5 5985.14,16202C5985.9,16201.4 5987.05,16201.1 5988.56,16201.1C5990.02,16201.1 5991.19,16201.3 5992.09,16201.6L5992.09,16204.8C5991.11,16204.6 5990.32,16204.6 5989.75,16204.6C5988.98,16204.6 5988.44,16204.7 5988.11,16204.9C5987.79,16205.1 5987.58,16205.5 5987.47,16206.2C5987.37,16206.9 5987.31,16208 5987.31,16209.5C5987.31,16211.1 5987.37,16212.2 5987.49,16212.9C5987.61,16213.6 5987.83,16214 5988.15,16214.2C5988.47,16214.4 5989.01,16214.5 5989.78,16214.5C5990.32,16214.5 5991.12,16214.4 5992.18,16214.3L5992.18,16217.5ZM5954.47,16215.8C5954.19,16216.6 5953.75,16217.1 5953.13,16217.5C5952.51,16217.8 5951.81,16218 5951.04,16218C5949.72,16218 5948.77,16217.6 5948.19,16216.8C5947.61,16216 5947.33,16214.7 5947.33,16213C5947.33,16211.7 5947.45,16210.7 5947.71,16210C5947.97,16209.3 5948.4,16208.8 5949.01,16208.5C5949.62,16208.1 5950.47,16208 5951.56,16208C5952.32,16208 5953.35,16208 5954.63,16208.1L5954.63,16207.3C5954.63,16206.5 5954.56,16205.8 5954.42,16205.4C5954.28,16205.1 5954.03,16204.8 5953.65,16204.7C5953.28,16204.6 5952.64,16204.6 5951.72,16204.6C5950.82,16204.6 5949.62,16204.6 5948.13,16204.8L5948.13,16201.6C5949.73,16201.3 5951.34,16201.1 5952.97,16201.1C5954.57,16201.1 5955.79,16201.3 5956.62,16201.7C5957.45,16202.2 5958.02,16202.8 5958.32,16203.8C5958.62,16204.7 5958.77,16206 5958.77,16207.7L5958.77,16217.7L5954.82,16217.7L5954.7,16215.8L5954.47,16215.8ZM5872.99,16215.8C5872.72,16216.6 5872.27,16217.1 5871.65,16217.5C5871.03,16217.8 5870.33,16218 5869.56,16218C5868.24,16218 5867.29,16217.6 5866.71,16216.8C5866.14,16216 5865.85,16214.7 5865.85,16213C5865.85,16211.7 5865.98,16210.7 5866.23,16210C5866.49,16209.3 5866.92,16208.8 5867.53,16208.5C5868.14,16208.1 5868.99,16208 5870.08,16208C5870.85,16208 5871.87,16208 5873.15,16208.1L5873.15,16207.3C5873.15,16206.5 5873.08,16205.8 5872.94,16205.4C5872.81,16205.1 5872.55,16204.8 5872.18,16204.7C5871.8,16204.6 5871.16,16204.6 5870.24,16204.6C5869.34,16204.6 5868.14,16204.6 5866.65,16204.8L5866.65,16201.6C5868.25,16201.3 5869.86,16201.1 5871.49,16201.1C5873.09,16201.1 5874.31,16201.3 5875.14,16201.7C5875.97,16202.2 5876.54,16202.8 5876.84,16203.8C5877.14,16204.7 5877.29,16206 5877.29,16207.7L5877.29,16217.7L5873.35,16217.7L5873.22,16215.8L5872.99,16215.8ZM5885.17,16201.4L5887.76,16201.4L5887.76,16204.8L5885.17,16204.8L5885.17,16217.7L5881.03,16217.7L5881.03,16204.8L5879.02,16204.8L5879.02,16201.4L5881.03,16201.4L5881.03,16196.6L5885.17,16196.6L5885.17,16201.4ZM5833.9,16201.4L5836.5,16201.4L5836.5,16204.8L5833.9,16204.8L5833.9,16217.7L5829.77,16217.7L5829.77,16204.8L5827.75,16204.8L5827.75,16201.4L5829.77,16201.4L5829.77,16196.6L5833.9,16196.6L5833.9,16201.4ZM5818.46,16217.7L5814.33,16217.7L5814.33,16201.4L5818.23,16201.4L5818.36,16203.3L5818.59,16203.3C5818.89,16202.5 5819.35,16201.9 5819.97,16201.6C5820.59,16201.3 5821.33,16201.1 5822.21,16201.1C5823.23,16201.1 5824.01,16201.3 5824.53,16201.7C5825.06,16202.1 5825.41,16202.7 5825.59,16203.6C5825.77,16204.4 5825.86,16205.5 5825.86,16207L5825.86,16217.7L5821.73,16217.7L5821.73,16208.9C5821.73,16207.5 5821.7,16206.5 5821.63,16206C5821.57,16205.5 5821.44,16205.2 5821.25,16205.1C5821.06,16204.9 5820.69,16204.9 5820.16,16204.9C5819.6,16204.9 5819.21,16205 5818.99,16205.2C5818.76,16205.4 5818.62,16205.8 5818.56,16206.4C5818.49,16207 5818.46,16207.9 5818.46,16209.3L5818.46,16217.7ZM6012.59,16217.7L6008.46,16217.7L6008.46,16201.4L6012.37,16201.4L6012.5,16203.3L6012.72,16203.3C6013.04,16202.5 6013.49,16202 6014.07,16201.6C6014.64,16201.3 6015.38,16201.1 6016.28,16201.1C6017.24,16201.1 6017.98,16201.3 6018.49,16201.6C6019,16202 6019.35,16202.5 6019.55,16203.3L6019.8,16203.3C6020.1,16202.5 6020.55,16202 6021.15,16201.6C6021.75,16201.3 6022.49,16201.1 6023.39,16201.1C6024.37,16201.1 6025.12,16201.3 6025.63,16201.7C6026.15,16202.1 6026.5,16202.7 6026.69,16203.5C6026.88,16204.3 6026.98,16205.4 6026.98,16206.8L6026.98,16217.7L6022.85,16217.7L6022.85,16208.9C6022.85,16207.5 6022.82,16206.6 6022.75,16206.1C6022.69,16205.5 6022.56,16205.2 6022.38,16205.1C6022.2,16204.9 6021.86,16204.9 6021.37,16204.9C6020.86,16204.9 6020.5,16205 6020.28,16205.2C6020.07,16205.4 6019.94,16205.8 6019.88,16206.3C6019.83,16206.9 6019.8,16207.9 6019.8,16209.3L6019.8,16217.7L6015.67,16217.7L6015.67,16208.9C6015.67,16207.5 6015.64,16206.6 6015.57,16206.1C6015.51,16205.5 6015.39,16205.2 6015.2,16205.1C6015.02,16204.9 6014.68,16204.9 6014.16,16204.9C6013.65,16204.9 6013.29,16205 6013.09,16205.2C6012.89,16205.4 6012.75,16205.8 6012.69,16206.4C6012.63,16207 6012.59,16207.9 6012.59,16209.3L6012.59,16217.7ZM5930.7,16217.7L5926.57,16217.7L5926.57,16201.4L5930.47,16201.4L5930.6,16203.3L5930.83,16203.3C5931.15,16202.5 5931.6,16202 5932.17,16201.6C5932.75,16201.3 5933.48,16201.1 5934.38,16201.1C5935.34,16201.1 5936.08,16201.3 5936.59,16201.6C5937.11,16202 5937.46,16202.5 5937.65,16203.3L5937.91,16203.3C5938.21,16202.5 5938.65,16202 5939.25,16201.6C5939.85,16201.3 5940.6,16201.1 5941.5,16201.1C5942.48,16201.1 5943.23,16201.3 5943.74,16201.7C5944.25,16202.1 5944.6,16202.7 5944.8,16203.5C5944.99,16204.3 5945.08,16205.4 5945.08,16206.8L5945.08,16217.7L5940.95,16217.7L5940.95,16208.9C5940.95,16207.5 5940.92,16206.6 5940.86,16206.1C5940.79,16205.5 5940.67,16205.2 5940.49,16205.1C5940.31,16204.9 5939.97,16204.9 5939.48,16204.9C5938.96,16204.9 5938.6,16205 5938.39,16205.2C5938.17,16205.4 5938.04,16205.8 5937.99,16206.3C5937.93,16206.9 5937.91,16207.9 5937.91,16209.3L5937.91,16217.7L5933.77,16217.7L5933.77,16208.9C5933.77,16207.5 5933.74,16206.6 5933.68,16206.1C5933.61,16205.5 5933.49,16205.2 5933.31,16205.1C5933.13,16204.9 5932.78,16204.9 5932.27,16204.9C5931.76,16204.9 5931.4,16205 5931.19,16205.2C5930.99,16205.4 5930.86,16205.8 5930.79,16206.4C5930.73,16207 5930.7,16207.9 5930.7,16209.3L5930.7,16217.7ZM5965.78,16217.7L5961.65,16217.7L5961.65,16201.4L5965.78,16201.4L5965.78,16217.7ZM5980.49,16217.7L5975.97,16217.7L5975.97,16213.5L5980.49,16213.5L5980.49,16217.7ZM5972.86,16217.7L5968.73,16217.7L5968.73,16193.9L5972.86,16193.9L5972.86,16217.7ZM5843.77,16214.5C5844.39,16214.5 5844.81,16214.4 5845.04,16214.2C5845.26,16214 5845.4,16213.6 5845.45,16213C5845.51,16212.4 5845.53,16211.2 5845.53,16209.5C5845.53,16207.8 5845.51,16206.7 5845.45,16206.1C5845.4,16205.4 5845.26,16205 5845.04,16204.9C5844.81,16204.7 5844.39,16204.6 5843.77,16204.6C5843.15,16204.6 5842.73,16204.7 5842.51,16204.9C5842.28,16205 5842.14,16205.4 5842.09,16206.1C5842.04,16206.7 5842.01,16207.8 5842.01,16209.5C5842.01,16211.2 5842.04,16212.4 5842.09,16213C5842.14,16213.6 5842.28,16214 5842.51,16214.2C5842.73,16214.4 5843.15,16214.5 5843.77,16214.5ZM6000,16214.5C6000.62,16214.5 6001.04,16214.4 6001.27,16214.2C6001.49,16214 6001.63,16213.6 6001.68,16213C6001.74,16212.4 6001.76,16211.2 6001.76,16209.5C6001.76,16207.8 6001.74,16206.7 6001.68,16206.1C6001.63,16205.4 6001.49,16205 6001.27,16204.9C6001.04,16204.7 6000.62,16204.6 6000,16204.6C5999.38,16204.6 5998.96,16204.7 5998.74,16204.9C5998.51,16205 5998.37,16205.4 5998.32,16206.1C5998.27,16206.7 5998.24,16207.8 5998.24,16209.5C5998.24,16211.2 5998.27,16212.4 5998.32,16213C5998.37,16213.6 5998.51,16214 5998.74,16214.2C5998.96,16214.4 5999.38,16214.5 6000,16214.5ZM5954.63,16210.7L5952.71,16210.7C5952.15,16210.7 5951.79,16210.9 5951.6,16211.1C5951.42,16211.3 5951.33,16211.8 5951.33,16212.6C5951.33,16213.3 5951.42,16213.8 5951.6,16214C5951.79,16214.2 5952.2,16214.4 5952.84,16214.4C5953.2,16214.4 5953.49,16214.3 5953.72,16214.2C5953.94,16214.2 5954.13,16214 5954.28,16213.8C5954.52,16213.4 5954.63,16212.7 5954.63,16211.5L5954.63,16210.7ZM5873.15,16210.7L5871.23,16210.7C5870.68,16210.7 5870.31,16210.9 5870.12,16211.1C5869.94,16211.3 5869.85,16211.8 5869.85,16212.6C5869.85,16213.3 5869.94,16213.8 5870.12,16214C5870.31,16214.2 5870.72,16214.4 5871.36,16214.4C5871.72,16214.4 5872.02,16214.3 5872.24,16214.2C5872.46,16214.2 5872.65,16214 5872.8,16213.8C5873.03,16213.4 5873.15,16212.7 5873.15,16211.5L5873.15,16210.7ZM5858.06,16214.2C5858.64,16214.2 5859.04,16214.2 5859.26,16214C5859.49,16213.8 5859.64,16213.4 5859.71,16212.8C5859.79,16212.2 5859.82,16211.1 5859.82,16209.5C5859.82,16207.9 5859.79,16206.9 5859.71,16206.2C5859.64,16205.6 5859.49,16205.2 5859.26,16205.1C5859.04,16204.9 5858.64,16204.8 5858.06,16204.8C5857.66,16204.8 5857.34,16204.9 5857.12,16205C5856.89,16205.1 5856.73,16205.4 5856.62,16205.7C5856.45,16206.3 5856.36,16207.6 5856.36,16209.5C5856.36,16211.4 5856.44,16212.6 5856.59,16213.2C5856.67,16213.6 5856.83,16213.9 5857.05,16214C5857.28,16214.2 5857.61,16214.2 5858.06,16214.2ZM5917.75,16214C5918.22,16214 5918.57,16213.9 5918.8,16213.7C5919.02,16213.6 5919.19,16213.3 5919.29,16212.9C5919.42,16212.3 5919.48,16211.2 5919.48,16209.4C5919.48,16207.8 5919.43,16206.7 5919.32,16206.2C5919.24,16205.7 5919.08,16205.3 5918.86,16205.1C5918.64,16204.9 5918.27,16204.9 5917.75,16204.9C5917.18,16204.9 5916.78,16204.9 5916.57,16205.1C5916.35,16205.3 5916.21,16205.6 5916.14,16206.2C5916.06,16206.8 5916.02,16207.9 5916.02,16209.4C5916.02,16210.9 5916.06,16212 5916.14,16212.6C5916.21,16213.2 5916.35,16213.5 5916.57,16213.7C5916.78,16213.9 5917.18,16214 5917.75,16214ZM5900.84,16209.3L5899.2,16209.3C5898.75,16209.3 5898.45,16209.4 5898.31,16209.6C5898.15,16209.8 5898.08,16210.3 5898.08,16211C5898.08,16211.6 5898.15,16212 5898.31,16212.2C5898.45,16212.4 5898.8,16212.5 5899.33,16212.5C5899.95,16212.5 5900.36,16212.3 5900.55,16212C5900.74,16211.7 5900.84,16211.1 5900.84,16210.1L5900.84,16209.3ZM5965.81,16197.8L5961.62,16197.8L5961.62,16193.9L5965.81,16193.9L5965.81,16197.8Z" style="fill-rule:nonzero;"/>
                </g>
            </g>
        </g>
    </g>
</svg>
