<?xml version="1.0" encoding="UTF-8" standalone="no"?>
<!DOCTYPE svg PUBLIC "-//W3C//DTD SVG 1.1//EN" "http://www.w3.org/Graphics/SVG/1.1/DTD/svg11.dtd">
<svg width="100%" height="100%" viewBox="0 0 512 512" version="1.1" xmlns="http://www.w3.org/2000/svg" xmlns:xlink="http://www.w3.org/1999/xlink" xml:space="preserve" xmlns:serif="http://www.serif.com/" style="fill-rule:evenodd;clip-rule:evenodd;stroke-linejoin:round;stroke-miterlimit:1.41421;">
    <path d="M283.043,247.957C277.883,247.957 272.727,245.973 268.816,242.012C261.055,234.156 261.133,221.492 268.988,213.734L350.539,133.184L285.781,68.43C274.32,56.969 270.922,39.875 277.121,24.887C283.332,9.875 297.836,0.164 314.074,0.145L452.035,0L452.098,0C468.098,0 483.141,6.23 494.453,17.547C505.785,28.875 512.016,43.941 512,59.969L511.855,197.926C511.836,214.164 502.125,228.668 487.113,234.879C472.121,241.078 455.027,237.68 443.57,226.219L428.113,210.766C420.305,202.957 420.305,190.297 428.113,182.488C435.926,174.68 448.586,174.68 456.395,182.488L471.828,197.922C471.84,197.918 471.852,197.914 471.859,197.91C471.859,197.902 471.859,197.891 471.859,197.883L472.008,59.926C472.012,54.598 469.941,49.59 466.176,45.824C462.414,42.063 457.414,39.992 452.098,39.992C452.09,39.992 452.082,39.992 452.078,39.992L314.117,40.137C314.109,40.137 314.102,40.137 314.094,40.137C314.09,40.148 314.086,40.16 314.082,40.168L378.816,104.906C386.371,112.457 390.531,122.504 390.531,133.184C390.531,143.867 386.371,153.91 378.816,161.465C378.789,161.492 378.758,161.52 378.73,161.551L297.094,242.184C293.195,246.035 288.117,247.957 283.043,247.957ZM59.969,512L197.926,511.855C214.164,511.84 228.668,502.125 234.879,487.113C241.078,472.125 237.68,455.031 226.219,443.57L161.465,378.816L242.191,298.09C250,290.281 250,277.617 242.191,269.809C234.383,262 221.719,262 213.91,269.809L133.188,350.535C125.633,358.09 121.473,368.133 121.473,378.816C121.473,389.496 125.633,399.543 133.188,407.094L197.922,471.832C197.918,471.844 197.914,471.852 197.906,471.863C197.898,471.863 197.891,471.863 197.883,471.863L59.926,472.008C59.918,472.008 59.91,472.008 59.902,472.008C54.586,472.008 49.586,469.938 45.828,466.176C42.059,462.41 39.988,457.402 39.996,452.074L40.141,314.117C40.141,314.109 40.141,314.098 40.141,314.09C40.152,314.086 40.16,314.082 40.172,314.078L55.605,329.512C63.418,337.324 76.078,337.32 83.887,329.512C91.695,321.703 91.695,309.043 83.887,301.234L68.434,285.781C56.973,274.32 39.883,270.918 24.887,277.121C9.875,283.332 0.164,297.836 0.148,314.074L0,452.035C-0.016,468.059 6.215,483.125 17.547,494.457C28.863,505.77 43.902,512 59.902,512L59.969,512Z" style="fill:white;fill-rule:nonzero;"/>
</svg>
