<?xml version="1.0" encoding="UTF-8" standalone="no"?>
<!DOCTYPE svg PUBLIC "-//W3C//DTD SVG 1.1//EN" "http://www.w3.org/Graphics/SVG/1.1/DTD/svg11.dtd">
<svg width="100%" height="100%" viewBox="0 0 709 612" version="1.1" xmlns="http://www.w3.org/2000/svg" xmlns:xlink="http://www.w3.org/1999/xlink" xml:space="preserve" xmlns:serif="http://www.serif.com/" style="fill-rule:evenodd;clip-rule:evenodd;stroke-linecap:round;stroke-linejoin:round;stroke-miterlimit:1.41421;">
    <g transform="matrix(1,0,0,1,-3164.61,-16397)">
        <g transform="matrix(1,0,0,1,1273.6,15078.5)">
            <g transform="matrix(1.224,0,0,1.224,718.163,81.6325)">
                <path d="M1383.85,1440.19L1354.67,1456.72C1358.17,1447.95 1363.52,1446.85 1370.9,1454.19" style="fill:none;stroke:black;stroke-width:4.24px;"/>
                <path d="M1190.19,1497.9C1190.13,1487.47 1190.93,1476.43 1184.87,1470.28C1174.76,1482.65 1187.7,1490.81 1203.08,1476.3C1204.21,1481.57 1206.02,1486.89 1210.67,1492.34" style="fill:none;stroke:black;stroke-width:4.24px;"/>
                <path d="M1211.58,1500.99C1202.03,1505.42 1210.14,1481.86 1223.67,1495.08C1206.91,1505.1 1235.54,1504.26 1223.86,1497.9C1236.89,1496.48 1249.98,1494.52 1263.09,1492.29C1253.95,1498.01 1245.31,1503.03 1236.96,1507.63C1258.25,1497.29 1278.64,1487.67 1292.02,1483.76C1275.57,1493.33 1263.23,1500.62 1255.25,1505.45C1301.47,1479.14 1346.42,1456.3 1353.28,1456.51C1355.12,1455.64 1355.42,1454.06 1352.36,1450.93" style="fill:none;stroke:black;stroke-width:4.24px;"/>
                <path d="M1385.01,1314.94C1386.88,1363.74 1376.73,1396.43 1366.48,1428.98C1376.57,1389.16 1386.42,1349.64 1395.04,1311.64C1388.74,1398.54 1382.77,1428.42 1376.93,1437.13C1373.99,1448.46 1370.41,1458.14 1368.75,1472.79" style="fill:none;stroke:black;stroke-width:4.24px;"/>
                <path d="M1010.13,1186.94C1006.89,1187.24 1005.58,1195.04 1005.42,1207.35C1004.92,1226.36 1003.23,1245.32 1000.28,1264.23C999.507,1249.58 1005.82,1223.99 1013.93,1195.62C1014.27,1250.49 1012.91,1270.87 1010.82,1276.13C1011.7,1250.16 1012.13,1224.15 1018.72,1198.88C1023.91,1226.62 1022.9,1270.29 1011.09,1337.59C1020.08,1305.7 1028.74,1273.66 1033.02,1239.76C1029.32,1252.08 1026.71,1264.66 1024.92,1277.43L1028.32,1247.99L1025.16,1262.39L1030.91,1202.21L1026.14,1237.77C1025.66,1220.64 1025.63,1203.39 1027.55,1185.56" style="fill:none;stroke:black;stroke-width:4.24px;"/>
                <path d="M1216.85,1313.23C1219.29,1340.54 1214.6,1362.79 1198.11,1376.67C1170.72,1400.95 1182.42,1427.32 1209.93,1427.14C1232.61,1429.28 1248.12,1434.27 1253.91,1443.15C1265.68,1423.36 1264.46,1413.45 1250.24,1413.42C1258.53,1413.22 1266.57,1413.14 1270.83,1414.57" style="fill:none;stroke:black;stroke-width:4.24px;"/>
                <path d="M1252.86,1365.73C1261.53,1364.99 1273.73,1369.01 1291.75,1380.89" style="fill:none;stroke:black;stroke-width:4.24px;"/>
                <path d="M1209.95,1369.88L1209.98,1369.88L1210.01,1369.88L1210.04,1369.88L1210.07,1369.88L1210.1,1369.88L1210.13,1369.89L1210.16,1369.89L1210.19,1369.89L1210.22,1369.9L1210.25,1369.9L1210.28,1369.91L1210.31,1369.91L1210.34,1369.92L1210.37,1369.92L1210.39,1369.93L1210.42,1369.94L1210.45,1369.94L1210.48,1369.95L1210.51,1369.96L1210.54,1369.97L1210.57,1369.98L1210.6,1369.99L1210.63,1370L1210.65,1370.01L1210.68,1370.02L1210.71,1370.03L1210.74,1370.04L1210.77,1370.05L1210.79,1370.06L1210.82,1370.07L1210.85,1370.09L1210.88,1370.1L1210.9,1370.11L1210.93,1370.13L1210.95,1370.14L1210.98,1370.16L1211.01,1370.17L1211.03,1370.19L1211.06,1370.2L1211.08,1370.22L1211.11,1370.24L1211.13,1370.25L1211.16,1370.27L1211.18,1370.29L1211.21,1370.3L1211.23,1370.32L1211.26,1370.34L1211.28,1370.36L1211.3,1370.38L1211.32,1370.4L1211.35,1370.42L1211.37,1370.44L1211.39,1370.46L1211.41,1370.48L1211.43,1370.5L1211.45,1370.52L1211.48,1370.54L1211.5,1370.57L1211.52,1370.59L1211.54,1370.61L1211.56,1370.63L1211.58,1370.66L1211.59,1370.68L1211.61,1370.7L1211.63,1370.73L1211.65,1370.75L1211.67,1370.78L1211.68,1370.8L1211.7,1370.83L1211.72,1370.85L1211.73,1370.88L1211.75,1370.9L1211.76,1370.93L1211.78,1370.95L1211.79,1370.98L1211.81,1371.01L1211.82,1371.03L1211.83,1371.06L1211.85,1371.09L1211.86,1371.12L1211.87,1371.14L1211.88,1371.17L1211.9,1371.2L1211.91,1371.23L1211.92,1371.25L1211.93,1371.28L1211.94,1371.31L1211.95,1371.34L1211.96,1371.37L1211.97,1371.4L1211.97,1371.42L1211.98,1371.45L1211.99,1371.48L1212,1371.51L1212,1371.54L1212.01,1371.57L1212.02,1371.6L1212.02,1371.63L1212.03,1371.66L1212.03,1371.69L1212.04,1371.72L1212.04,1371.75L1212.04,1371.78L1212.05,1371.81L1212.05,1371.84L1212.05,1371.87L1212.05,1371.9L1212.05,1371.93L1212.05,1371.96L1212.05,1371.99L1212.05,1372L1212.05,1372.12L1212.05,1372.13L1212.05,1372.14L1212.05,1372.15L1212.05,1372.16L1212.05,1372.17L1212.05,1372.18L1212.05,1372.19L1212.05,1372.2L1212.05,1372.21L1212.05,1372.22L1212.05,1372.23L1212.05,1372.24L1212.05,1372.25L1212.05,1372.26L1212.05,1372.27L1212.05,1372.28L1212.05,1372.29L1212.05,1372.3L1212.05,1372.31L1212.04,1372.32L1212.04,1372.33L1212.04,1372.34L1212.04,1372.35L1212.04,1372.36L1212.04,1372.37L1212.04,1372.38L1212.04,1372.39L1212.04,1372.4L1212.03,1372.41L1212.03,1372.42L1212.03,1372.43L1212.03,1372.44L1212.03,1372.45L1212.03,1372.46L1212.02,1372.47L1212.02,1372.48L1212.02,1372.49L1212.02,1372.5L1212.02,1372.51L1212.02,1372.52L1212.01,1372.53L1212.01,1372.54L1212.01,1372.55L1212.01,1372.56L1212.01,1372.57L1212,1372.58L1212,1372.59L1212,1372.59L1212,1372.6L1211.99,1372.61L1211.99,1372.62L1211.99,1372.63L1211.99,1372.64L1211.99,1372.65L1211.98,1372.66L1211.98,1372.67L1211.98,1372.68L1211.97,1372.69L1211.97,1372.7L1211.97,1372.71L1211.97,1372.72L1211.96,1372.73L1211.96,1372.74L1211.96,1372.75L1211.95,1372.76L1211.95,1372.77L1211.95,1372.78L1211.94,1372.79L1211.94,1372.8L1211.94,1372.81L1211.93,1372.82L1211.93,1372.83L1211.93,1372.83L1211.92,1372.84L1211.92,1372.85L1211.92,1372.86L1211.91,1372.87L1211.91,1372.88L1211.91,1372.89L1211.9,1372.9L1211.9,1372.91L1211.9,1372.92L1211.89,1372.93L1211.89,1372.94L1211.88,1372.95L1211.88,1372.96L1211.88,1372.96L1211.87,1372.97L1211.87,1372.98L1211.86,1372.99L1211.86,1373L1211.86,1373.01L1211.85,1373.02L1211.85,1373.03L1211.84,1373.04L1211.84,1373.05L1211.83,1373.06L1211.83,1373.07L1211.83,1373.07L1211.82,1373.08L1211.82,1373.09L1211.81,1373.1L1211.81,1373.11L1211.8,1373.12L1211.8,1373.13L1211.79,1373.14L1211.79,1373.14L1211.78,1373.15L1211.78,1373.16L1211.77,1373.17L1211.77,1373.18L1211.76,1373.19L1211.76,1373.2L1211.75,1373.2L1211.75,1373.21L1211.74,1373.22L1211.74,1373.23L1211.73,1373.24L1211.73,1373.25L1211.72,1373.26L1211.72,1373.27L1211.71,1373.27L1211.7,1373.28L1211.7,1373.29L1211.69,1373.3L1211.69,1373.31L1211.68,1373.32L1211.68,1373.32L1211.67,1373.33L1211.67,1373.34L1211.66,1373.35L1211.65,1373.36L1211.65,1373.36L1211.64,1373.37L1211.64,1373.38L1211.63,1373.39L1211.62,1373.4L1211.62,1373.4L1211.61,1373.41L1211.61,1373.42L1211.6,1373.43L1211.59,1373.44L1211.59,1373.44L1211.58,1373.45L1211.58,1373.46L1211.57,1373.47L1211.56,1373.48L1211.56,1373.48L1211.55,1373.49L1211.54,1373.5L1211.54,1373.51L1211.53,1373.51L1211.52,1373.52L1211.52,1373.53L1211.51,1373.54L1211.5,1373.54L1211.5,1373.55L1211.49,1373.56L1211.48,1373.57L1211.48,1373.57L1211.47,1373.58L1211.46,1373.59L1211.45,1373.59L1211.45,1373.6L1211.44,1373.61L1211.43,1373.62L1211.43,1373.62L1211.42,1373.63L1211.41,1373.64L1211.4,1373.64L1211.4,1373.65L1211.39,1373.66L1211.38,1373.66L1211.38,1373.67L1211.37,1373.68L1211.36,1373.68L1211.35,1373.69L1211.35,1373.7L1211.34,1373.7L1211.33,1373.71L1211.32,1373.72L1211.32,1373.72L1211.31,1373.73L1211.3,1373.74L1211.29,1373.74L1211.29,1373.75L1211.28,1373.76L1211.27,1373.76L1211.26,1373.77L1211.26,1373.78L1211.25,1373.78L1211.24,1373.79L1211.23,1373.79L1211.22,1373.8L1211.21,1373.81L1211.21,1373.81L1211.2,1373.82L1211.19,1373.82L1211.18,1373.83L1211.17,1373.84L1211.17,1373.84L1211.16,1373.85L1211.15,1373.85L1211.14,1373.86L1211.13,1373.87L1211.13,1373.87L1211.12,1373.88L1211.11,1373.88L1211.1,1373.89L1211.09,1373.89L1211.08,1373.9L1211.08,1373.9L1211.07,1373.91L1211.06,1373.91L1211.05,1373.92L1211.04,1373.92L1211.03,1373.93L1211.02,1373.93L1211.02,1373.94L1211.01,1373.95L1211,1373.95L1210.99,1373.96L1210.98,1373.96L1210.97,1373.97L1210.96,1373.97L1210.95,1373.98L1210.95,1373.98L1210.94,1373.99L1210.93,1373.99L1210.92,1373.99L1210.91,1374L1210.9,1374L1210.89,1374.01L1210.88,1374.01L1210.88,1374.02L1210.87,1374.02L1210.86,1374.03L1210.85,1374.03L1210.84,1374.04L1210.83,1374.04L1210.82,1374.04L1210.81,1374.05L1210.8,1374.05L1210.79,1374.06L1210.78,1374.06L1210.78,1374.06L1210.77,1374.07L1210.76,1374.07L1210.75,1374.08L1210.74,1374.08L1210.73,1374.08L1210.72,1374.09L1210.71,1374.09L1210.7,1374.09L1210.69,1374.1L1210.68,1374.1L1210.67,1374.11L1210.66,1374.11L1210.65,1374.11L1210.64,1374.12L1210.63,1374.12L1210.63,1374.12L1210.62,1374.12L1210.61,1374.13L1210.6,1374.13L1210.59,1374.13L1210.58,1374.14L1210.57,1374.14L1210.56,1374.14L1210.55,1374.15L1210.54,1374.15L1210.53,1374.15L1210.52,1374.15L1210.51,1374.16L1210.5,1374.16L1210.49,1374.16L1210.48,1374.17L1210.47,1374.17L1210.46,1374.17L1210.45,1374.17L1210.44,1374.18L1210.43,1374.18L1210.42,1374.18L1210.41,1374.18L1210.4,1374.18L1210.39,1374.19L1210.38,1374.19L1210.38,1374.19L1210.37,1374.19L1210.36,1374.2L1210.35,1374.2L1210.34,1374.2L1210.33,1374.2L1210.32,1374.2L1210.31,1374.2L1210.3,1374.21L1210.29,1374.21L1210.28,1374.21L1210.27,1374.21L1210.26,1374.21L1210.25,1374.21L1210.24,1374.22L1210.23,1374.22L1210.22,1374.22L1210.21,1374.22L1210.2,1374.22L1210.19,1374.22L1210.18,1374.22L1210.17,1374.23L1210.16,1374.23L1210.15,1374.23L1210.14,1374.23L1210.13,1374.23L1210.12,1374.23L1210.11,1374.23L1210.1,1374.23L1210.09,1374.23L1210.08,1374.23L1210.07,1374.23L1210.06,1374.24L1210.05,1374.24L1210.04,1374.24L1210.03,1374.24L1210.02,1374.24L1210.01,1374.24L1210,1374.24L1209.99,1374.24L1209.98,1374.24L1209.97,1374.24L1209.96,1374.24L1209.95,1374.24L1209.94,1374.24L1209.93,1374.24L1209.92,1374.24L1209.91,1374.24L1209.9,1374.24L1209.89,1374.24L1209.88,1374.24L1209.87,1374.24L1209.86,1374.24L1209.85,1374.24L1209.84,1374.24L1209.83,1374.24L1209.82,1374.24L1209.81,1374.24L1209.8,1374.23L1209.79,1374.23L1209.78,1374.23L1209.77,1374.23L1209.76,1374.23L1209.75,1374.23L1209.74,1374.23L1209.73,1374.23L1209.72,1374.23L1209.71,1374.23L1209.7,1374.23L1209.69,1374.22L1209.68,1374.22L1209.67,1374.22L1209.66,1374.22L1209.65,1374.22L1209.64,1374.22L1209.63,1374.22L1209.62,1374.21L1209.61,1374.21L1209.6,1374.21L1209.59,1374.21L1209.58,1374.21L1209.57,1374.21L1209.56,1374.2L1209.55,1374.2L1209.54,1374.2L1209.53,1374.2L1209.52,1374.2L1209.51,1374.2L1209.5,1374.19L1209.49,1374.19L1209.48,1374.19L1209.47,1374.19L1209.46,1374.18L1209.45,1374.18L1209.44,1374.18L1209.43,1374.18L1209.42,1374.18L1209.41,1374.17L1209.4,1374.17L1209.39,1374.17L1209.38,1374.17L1209.37,1374.16L1209.36,1374.16L1209.35,1374.16L1209.34,1374.15L1209.33,1374.15L1209.33,1374.15L1209.32,1374.15L1209.31,1374.14L1209.3,1374.14L1209.29,1374.14L1209.28,1374.13L1209.27,1374.13L1209.26,1374.13L1209.25,1374.12L1209.24,1374.12L1209.23,1374.12L1209.22,1374.12L1209.21,1374.11L1209.2,1374.11L1209.19,1374.11L1209.18,1374.1L1209.17,1374.1L1209.16,1374.09L1209.15,1374.09L1209.14,1374.09L1209.14,1374.08L1209.13,1374.08L1209.12,1374.08L1209.11,1374.07L1209.1,1374.07L1209.09,1374.06L1209.08,1374.06L1209.07,1374.06L1209.06,1374.05L1209.05,1374.05L1209.04,1374.04L1209.04,1374.04L1209.03,1374.04L1209.02,1374.03L1209.01,1374.03L1209,1374.02L1208.99,1374.02L1208.98,1374.01L1208.97,1374.01L1208.96,1374L1208.95,1374L1208.94,1373.99L1208.94,1373.99L1208.93,1373.99L1208.92,1373.98L1208.91,1373.98L1208.9,1373.97L1208.89,1373.97L1208.88,1373.96L1208.88,1373.96L1208.87,1373.95L1208.86,1373.95L1208.85,1373.94L1208.84,1373.93L1208.83,1373.93L1208.82,1373.92L1208.82,1373.92L1208.81,1373.91L1208.8,1373.91L1208.79,1373.9L1208.78,1373.9L1208.77,1373.89L1208.76,1373.89L1208.76,1373.88L1208.75,1373.88L1208.74,1373.87L1208.73,1373.87L1208.72,1373.86L1208.71,1373.85L1208.71,1373.85L1208.7,1373.84L1208.69,1373.84L1208.68,1373.83L1208.67,1373.82L1208.67,1373.82L1208.66,1373.81L1208.65,1373.81L1208.64,1373.8L1208.63,1373.79L1208.63,1373.79L1208.62,1373.78L1208.61,1373.78L1208.6,1373.77L1208.6,1373.76L1208.59,1373.76L1208.58,1373.75L1208.57,1373.74L1208.56,1373.74L1208.56,1373.73L1208.55,1373.72L1208.54,1373.72L1208.53,1373.71L1208.53,1373.7L1208.52,1373.7L1208.51,1373.69L1208.5,1373.68L1208.5,1373.68L1208.49,1373.67L1208.48,1373.66L1208.47,1373.66L1208.47,1373.65L1208.46,1373.64L1208.45,1373.64L1208.44,1373.63L1208.44,1373.62L1208.43,1373.62L1208.42,1373.61L1208.42,1373.6L1208.41,1373.59L1208.4,1373.59L1208.4,1373.58L1208.39,1373.57L1208.38,1373.57L1208.38,1373.56L1208.37,1373.55L1208.36,1373.54L1208.36,1373.54L1208.35,1373.53L1208.34,1373.52L1208.34,1373.51L1208.33,1373.51L1208.32,1373.5L1208.32,1373.49L1208.31,1373.48L1208.3,1373.48L1208.3,1373.47L1208.29,1373.46L1208.28,1373.45L1208.28,1373.44L1208.27,1373.44L1208.27,1373.43L1208.26,1373.42L1208.25,1373.41L1208.25,1373.4L1208.24,1373.4L1208.23,1373.39L1208.23,1373.38L1208.22,1373.37L1208.22,1373.36L1208.21,1373.36L1208.2,1373.35L1208.2,1373.34L1208.19,1373.33L1208.19,1373.32L1208.18,1373.32L1208.18,1373.31L1208.17,1373.3L1208.16,1373.29L1208.16,1373.28L1208.15,1373.27L1208.15,1373.27L1208.14,1373.26L1208.14,1373.25L1208.13,1373.24L1208.13,1373.23L1208.12,1373.22L1208.12,1373.21L1208.11,1373.2L1208.11,1373.2L1208.1,1373.19L1208.1,1373.18L1208.09,1373.17L1208.09,1373.16L1208.08,1373.15L1208.08,1373.14L1208.07,1373.14L1208.07,1373.13L1208.06,1373.12L1208.06,1373.11L1208.05,1373.1L1208.05,1373.09L1208.04,1373.08L1208.04,1373.07L1208.04,1373.07L1208.03,1373.06L1208.03,1373.05L1208.02,1373.04L1208.02,1373.03L1208.01,1373.02L1208.01,1373.01L1208.01,1373L1208,1372.99L1208,1372.98L1207.99,1372.97L1207.99,1372.96L1207.98,1372.96L1207.98,1372.95L1207.98,1372.94L1207.97,1372.93L1207.97,1372.92L1207.96,1372.91L1207.96,1372.9L1207.96,1372.89L1207.95,1372.88L1207.95,1372.87L1207.95,1372.86L1207.94,1372.85L1207.94,1372.84L1207.94,1372.83L1207.93,1372.83L1207.93,1372.82L1207.93,1372.81L1207.92,1372.8L1207.92,1372.79L1207.92,1372.78L1207.91,1372.77L1207.91,1372.76L1207.91,1372.75L1207.9,1372.74L1207.9,1372.73L1207.9,1372.72L1207.9,1372.71L1207.89,1372.7L1207.89,1372.69L1207.89,1372.68L1207.88,1372.67L1207.88,1372.66L1207.88,1372.65L1207.88,1372.64L1207.88,1372.63L1207.87,1372.62L1207.87,1372.61L1207.87,1372.6L1207.87,1372.59L1207.86,1372.59L1207.86,1372.58L1207.86,1372.57L1207.86,1372.56L1207.86,1372.55L1207.85,1372.54L1207.85,1372.53L1207.85,1372.52L1207.85,1372.51L1207.85,1372.5L1207.84,1372.49L1207.84,1372.48L1207.84,1372.47L1207.84,1372.46L1207.84,1372.45L1207.84,1372.44L1207.83,1372.43L1207.83,1372.42L1207.83,1372.41L1207.83,1372.4L1207.83,1372.39L1207.83,1372.38L1207.83,1372.37L1207.83,1372.36L1207.82,1372.35L1207.82,1372.34L1207.82,1372.33L1207.82,1372.32L1207.82,1372.31L1207.82,1372.3L1207.82,1372.29L1207.82,1372.28L1207.82,1372.27L1207.82,1372.26L1207.82,1372.25L1207.82,1372.24L1207.81,1372.23L1207.81,1372.22L1207.81,1372.21L1207.81,1372.2L1207.81,1372.19L1207.81,1372.18L1207.81,1372.17L1207.81,1372.16L1207.81,1372.15L1207.81,1372.14L1207.81,1372.13L1207.81,1372.12L1207.81,1372L1207.81,1371.99L1207.81,1371.98L1207.81,1371.97L1207.81,1371.96L1207.81,1371.95L1207.81,1371.94L1207.81,1371.93L1207.81,1371.92L1207.81,1371.91L1207.81,1371.9L1207.81,1371.89L1207.82,1371.88L1207.82,1371.87L1207.82,1371.86L1207.82,1371.85L1207.82,1371.84L1207.82,1371.83L1207.82,1371.82L1207.82,1371.81L1207.82,1371.8L1207.82,1371.79L1207.82,1371.78L1207.82,1371.77L1207.83,1371.76L1207.83,1371.75L1207.83,1371.74L1207.83,1371.73L1207.83,1371.72L1207.83,1371.71L1207.83,1371.7L1207.83,1371.69L1207.84,1371.68L1207.84,1371.67L1207.84,1371.66L1207.84,1371.65L1207.84,1371.64L1207.84,1371.63L1207.85,1371.62L1207.85,1371.61L1207.85,1371.6L1207.85,1371.59L1207.85,1371.58L1207.86,1371.57L1207.86,1371.56L1207.86,1371.55L1207.86,1371.54L1207.86,1371.53L1207.87,1371.52L1207.87,1371.51L1207.87,1371.5L1207.87,1371.49L1207.88,1371.48L1207.88,1371.47L1207.88,1371.46L1207.88,1371.45L1207.88,1371.44L1207.89,1371.43L1207.89,1371.42L1207.89,1371.42L1207.9,1371.41L1207.9,1371.4L1207.9,1371.39L1207.9,1371.38L1207.91,1371.37L1207.91,1371.36L1207.91,1371.35L1207.92,1371.34L1207.92,1371.33L1207.92,1371.32L1207.93,1371.31L1207.93,1371.3L1207.93,1371.29L1207.94,1371.28L1207.94,1371.27L1207.94,1371.26L1207.95,1371.25L1207.95,1371.25L1207.95,1371.24L1207.96,1371.23L1207.96,1371.22L1207.96,1371.21L1207.97,1371.2L1207.97,1371.19L1207.98,1371.18L1207.98,1371.17L1207.98,1371.16L1207.99,1371.15L1207.99,1371.14L1208,1371.13L1208,1371.12L1208.01,1371.12L1208.01,1371.11L1208.01,1371.1L1208.02,1371.09L1208.02,1371.08L1208.03,1371.07L1208.03,1371.06L1208.04,1371.05L1208.04,1371.04L1208.04,1371.03L1208.05,1371.03L1208.05,1371.02L1208.06,1371.01L1208.06,1371L1208.07,1370.99L1208.07,1370.98L1208.08,1370.97L1208.08,1370.96L1208.09,1370.95L1208.09,1370.95L1208.1,1370.94L1208.1,1370.93L1208.11,1370.92L1208.11,1370.91L1208.12,1370.9L1208.12,1370.89L1208.13,1370.89L1208.13,1370.88L1208.14,1370.87L1208.14,1370.86L1208.15,1370.85L1208.15,1370.84L1208.16,1370.84L1208.16,1370.83L1208.17,1370.82L1208.18,1370.81L1208.18,1370.8L1208.19,1370.79L1208.19,1370.79L1208.2,1370.78L1208.2,1370.77L1208.21,1370.76L1208.22,1370.75L1208.22,1370.74L1208.23,1370.74L1208.23,1370.73L1208.24,1370.72L1208.25,1370.71L1208.25,1370.7L1208.26,1370.7L1208.27,1370.69L1208.27,1370.68L1208.28,1370.67L1208.28,1370.66L1208.29,1370.66L1208.3,1370.65L1208.3,1370.64L1208.31,1370.63L1208.32,1370.63L1208.32,1370.62L1208.33,1370.61L1208.34,1370.6L1208.34,1370.6L1208.35,1370.59L1208.36,1370.58L1208.36,1370.57L1208.37,1370.57L1208.38,1370.56L1208.38,1370.55L1208.39,1370.54L1208.4,1370.54L1208.4,1370.53L1208.41,1370.52L1208.42,1370.52L1208.42,1370.51L1208.43,1370.5L1208.44,1370.49L1208.44,1370.49L1208.45,1370.48L1208.46,1370.47L1208.47,1370.47L1208.47,1370.46L1208.48,1370.45L1208.49,1370.45L1208.5,1370.44L1208.5,1370.43L1208.51,1370.42L1208.52,1370.42L1208.53,1370.41L1208.53,1370.4L1208.54,1370.4L1208.55,1370.39L1208.56,1370.39L1208.56,1370.38L1208.57,1370.37L1208.58,1370.37L1208.59,1370.36L1208.6,1370.35L1208.6,1370.35L1208.61,1370.34L1208.62,1370.34L1208.63,1370.33L1208.63,1370.32L1208.64,1370.32L1208.65,1370.31L1208.66,1370.3L1208.67,1370.3L1208.67,1370.29L1208.68,1370.29L1208.69,1370.28L1208.7,1370.28L1208.71,1370.27L1208.71,1370.26L1208.72,1370.26L1208.73,1370.25L1208.74,1370.25L1208.75,1370.24L1208.76,1370.24L1208.76,1370.23L1208.77,1370.22L1208.78,1370.22L1208.79,1370.21L1208.8,1370.21L1208.81,1370.2L1208.82,1370.2L1208.82,1370.19L1208.83,1370.19L1208.84,1370.18L1208.85,1370.18L1208.86,1370.17L1208.87,1370.17L1208.88,1370.16L1208.88,1370.16L1208.89,1370.15L1208.9,1370.15L1208.91,1370.14L1208.92,1370.14L1208.93,1370.13L1208.94,1370.13L1208.94,1370.12L1208.95,1370.12L1208.96,1370.11L1208.97,1370.11L1208.98,1370.1L1208.99,1370.1L1209,1370.1L1209.01,1370.09L1209.02,1370.09L1209.03,1370.08L1209.04,1370.08L1209.04,1370.07L1209.05,1370.07L1209.06,1370.07L1209.07,1370.06L1209.08,1370.06L1209.09,1370.05L1209.1,1370.05L1209.11,1370.05L1209.12,1370.04L1209.13,1370.04L1209.14,1370.03L1209.14,1370.03L1209.15,1370.03L1209.16,1370.02L1209.17,1370.02L1209.18,1370.02L1209.19,1370.01L1209.2,1370.01L1209.21,1370.01L1209.22,1370L1209.23,1370L1209.24,1370L1209.25,1369.99L1209.26,1369.99L1209.27,1369.99L1209.28,1369.98L1209.29,1369.98L1209.3,1369.98L1209.31,1369.97L1209.32,1369.97L1209.33,1369.97L1209.33,1369.96L1209.34,1369.96L1209.35,1369.96L1209.36,1369.96L1209.37,1369.95L1209.38,1369.95L1209.39,1369.95L1209.4,1369.95L1209.41,1369.94L1209.42,1369.94L1209.43,1369.94L1209.44,1369.94L1209.45,1369.93L1209.46,1369.93L1209.47,1369.93L1209.48,1369.93L1209.49,1369.92L1209.5,1369.92L1209.51,1369.92L1209.52,1369.92L1209.53,1369.92L1209.54,1369.91L1209.55,1369.91L1209.56,1369.91L1209.57,1369.91L1209.58,1369.91L1209.59,1369.91L1209.6,1369.9L1209.61,1369.9L1209.62,1369.9L1209.63,1369.9L1209.64,1369.9L1209.65,1369.9L1209.66,1369.9L1209.67,1369.89L1209.68,1369.89L1209.69,1369.89L1209.7,1369.89L1209.71,1369.89L1209.72,1369.89L1209.73,1369.89L1209.74,1369.89L1209.75,1369.89L1209.76,1369.89L1209.77,1369.88L1209.78,1369.88L1209.79,1369.88L1209.8,1369.88L1209.81,1369.88L1209.82,1369.88L1209.83,1369.88L1209.84,1369.88L1209.85,1369.88L1209.86,1369.88L1209.87,1369.88L1209.88,1369.88L1209.89,1369.88L1209.9,1369.88L1209.91,1369.88L1209.92,1369.88L1209.93,1369.88L1209.95,1369.88Z"/>
                <path d="M1469.76,1307.02C1469.91,1289.56 1484.97,1288.7 1486.43,1295.69C1493.23,1321.05 1489,1331.69 1484.81,1342.37C1476.97,1351.71 1473.82,1359.7 1472.66,1367.12" style="fill:none;stroke:black;stroke-width:4.24px;"/>
                <path d="M1227.92,1344.38C1212.51,1336.76 1195.96,1333.31 1174.09,1349.37" style="fill:none;stroke:black;stroke-width:4.24px;"/>
                <path d="M1445.69,1386.68C1456.59,1375.25 1459.41,1381.66 1453.27,1386.9C1445.21,1393.78 1444.11,1383.15 1444.11,1383.15" style="fill:none;stroke:black;stroke-width:4.24px;"/>
                <path d="M979.378,1351.14C980.812,1288.25 947.768,1303.18 965.635,1367.01C969.374,1380.37 986.755,1434.04 986.755,1434.04C990.156,1419.37 992.743,1401.44 993.636,1376.74" style="fill:none;stroke:black;stroke-width:4.24px;"/>
                <path d="M1418.65,1364.61C1407.76,1377.11 1405.15,1395.26 1410.52,1418.81C1425.68,1423.65 1441.49,1424.09 1454.7,1429.97C1471.33,1431.37 1488.45,1426.67 1509.6,1372.45L1519.62,1327.56C1528.5,1308.4 1533.94,1293.42 1534.47,1284.41C1537.78,1245.79 1468.02,1254.36 1459.86,1284.66" style="fill:none;stroke:black;stroke-width:4.24px;"/>
                <path d="M1304.42,1447.82C1270.25,1447.02 1236.02,1445.58 1201.29,1439.02" style="fill:none;stroke:black;stroke-width:4.24px;"/>
                <path d="M1296.07,1317.96C1300.42,1367.98 1305.49,1408.98 1312.77,1422.75C1310.13,1425.45 1307.72,1428.37 1305.74,1431.71C1290.63,1430.11 1280.16,1421.47 1259.18,1425.12" style="fill:none;stroke:black;stroke-width:4.24px;"/>
                <path d="M1278.9,1296.1C1270.79,1406.93 1293.62,1413.73 1302.1,1408.59" style="fill:none;stroke:black;stroke-width:4.24px;"/>
                <path d="M1228.03,1343.72C1211.33,1337 1194.04,1334 1173.82,1349.31" style="fill:none;stroke:black;stroke-width:4.24px;"/>
                <path d="M1168.44,1430.67L1168.61,1436.29C1181.19,1419.67 1201.45,1431.64 1221.44,1442.58C1214.65,1442.07 1207.91,1441.11 1201.29,1439.02C1201.29,1439.02 1216.05,1447.36 1223.86,1450.63C1251.69,1462.29 1275.88,1459.22 1310.89,1449.92C1324.35,1445.26 1343.41,1438.41 1351.41,1438.12L1338.81,1437.35C1361.19,1438.54 1369.68,1455.12 1374.91,1454.64" style="fill:none;stroke:black;stroke-width:4.24px;"/>
                <path d="M1115.66,1373.65C1118.44,1408.04 1134.29,1438.38 1159.85,1465.73C1150.23,1457.74 1140.63,1449.56 1131.49,1437C1129.79,1453.54 1136.83,1467.25 1148.88,1479.34L1144.74,1460.06C1151.9,1471.83 1160.23,1481.17 1169.92,1487.69L1170.71,1482.13" style="fill:none;stroke:black;stroke-width:4.24px;"/>
                <path d="M1180.49,1503.03L1178.38,1501.43L1188.09,1494.69L1195.5,1494.58" style="fill:none;stroke:black;stroke-width:4.24px;"/>
                <path d="M1030.86,1297.65L1002.11,1296.29C1065.68,1282.64 1009.48,1263.43 1016.62,1294.12" style="fill:none;stroke:black;stroke-width:4.24px;"/>
                <path d="M1098.82,1092.76C1093.56,1121.33 1091.87,1150.54 1093.29,1180.3C1090.55,1209.03 1090.41,1239.22 1090.01,1263.01C1089.83,1273.67 1084.72,1288.12 1114.7,1313.02C1136.42,1334.21 1147.42,1349.32 1151.81,1360.67C1170.08,1361.55 1192.15,1364.95 1206.76,1364.31C1225.4,1363.48 1221.34,1363.56 1237.77,1343.17C1241.11,1339.03 1265.99,1311.74 1274.78,1305.93C1275.22,1264.49 1272.85,1223.06 1266.23,1181.66C1259.3,1152.47 1253.95,1111.42 1252.48,1091.77C1251.81,1082.82 1250.61,1073.92 1250.2,1064.96C1249.7,1053.81 1241.31,1043 1206.79,1036.02C1183.58,1044.43 1159.79,1055.86 1135.32,1070.79C1120.62,1070.18 1106.78,1073.55 1089.04,1058.69" style="fill:none;stroke:black;stroke-width:4.24px;"/>
                <path d="M1129.22,1295.01C1101.43,1267.79 1069.9,1257.46 1028.71,1290.69C1064.66,1432.83 1218.74,1457.1 1184.45,1295.27C1162.81,1282.53 1206.38,1281.16 1250.03,1295.49C1237.27,1290.91 1224.42,1286.15 1211.27,1280.8C1219.58,1281.04 1228.16,1282.33 1237.87,1288.14C1231.84,1331.05 1252.33,1377.65 1298.51,1385.07C1330.93,1377.17 1361.33,1365.6 1365.49,1306.54C1362.82,1297.36 1357.92,1305.18 1358.6,1335.06C1353.69,1323.94 1349.48,1311.8 1346.17,1298.35L1356.85,1328.3L1471.76,1279.48L1355.4,1314.25L1367.81,1317.23L1364.13,1310.66L1362.29,1317.25L1358.15,1310.56L1357.1,1317.42C1393.12,1223.59 1240.16,1237.33 1196.33,1276.24" style="fill:none;stroke:black;stroke-width:4.24px;"/>
                <path d="M1182.52,1399.71L1175.32,1405.9L1191.31,1402.08L1186.01,1404.92L1200.59,1407.55C1182.51,1405.78 1170.59,1405.61 1183.92,1412.06C1190.57,1414.07 1203.7,1414.95 1216.51,1415.88C1217.13,1403.08 1225.55,1399.75 1234.59,1410.25C1239.68,1413.07 1244.88,1417.16 1250.15,1422.09L1272.51,1419.1C1275.04,1418.71 1277.13,1417.59 1279.05,1416.2C1288.89,1408.44 1316.19,1419.74 1334.84,1437.02C1337.68,1437.74 1340.57,1437.94 1343.56,1437.25L1344.15,1433.74" style="fill:none;stroke:black;stroke-width:4.24px;"/>
                <path d="M1198.6,1419.03C1195.9,1430.11 1199.05,1431.59 1203.33,1424.07C1207.52,1415.59 1209.06,1417.66 1209.59,1423.79C1209.41,1427.11 1210.08,1429.66 1211.33,1431.68C1213.8,1429.21 1215.82,1424.84 1217.53,1419.1C1225.9,1436.58 1225.19,1438.37 1236.94,1414.72L1242.72,1427.2L1248.43,1419.71C1248.91,1422.79 1250.98,1425.67 1254.62,1428.36C1265.02,1414.71 1265.95,1417.82 1272.38,1429.59L1279.53,1420.35C1282.09,1424.63 1285.13,1426.86 1288.38,1428.23C1291.23,1426.2 1295.57,1421.73 1300.79,1415.79L1308.86,1426.71C1309.49,1426.12 1310.99,1423.65 1313.53,1418.94C1317.18,1439.88 1323.97,1428.95 1330.58,1419.88C1332.32,1424.73 1334.57,1428.39 1337.55,1430.33" style="fill:none;stroke:black;stroke-width:4.24px;"/>
                <path d="M1130.4,1037.83C1133.5,1067.11 1136.88,1093.86 1143.18,1094.97C1147.2,1095.68 1157.21,1076.77 1164.09,1051.45C1167.28,1035.61 1172.53,1025 1178.54,1016.34C1179.94,1016.26 1180.04,1031.94 1179.51,1055.13L1199.44,1021.7C1199.65,1034.51 1199.52,1047.31 1198.73,1060.1L1225.96,1013.52L1216.64,1070.53" style="fill:none;stroke:black;stroke-width:4.24px;"/>
                <path d="M1122.77,1024.94C1114.64,1045.02 1109.3,1066.93 1107.73,1091.33L1123.25,1045.09C1122.8,1058.98 1123.09,1072.94 1124.34,1087.01C1132.56,1080.4 1144.83,1054.55 1149.48,1054.89C1153.86,1055.21 1154,1063 1157.11,1073.9C1158.52,1079.3 1160.71,1084.08 1165.7,1086.59C1167.24,1087.36 1182.71,1060.69 1190.87,1059.23C1192.63,1058.91 1216.49,1087.12 1223.4,1070.83" style="fill:none;stroke:black;stroke-width:4.24px;"/>
                <path d="M1052.58,1104.82C1054.69,1105.69 1059.21,1101.76 1065,1095.3C1058.58,1090.48 1053.19,1088.68 1051.59,1097.86C1047.9,1118.33 1043.32,1136.69 1036.95,1150.84C1030.71,1140.44 1027.96,1128.48 1028.71,1114.94C1034.51,1122.51 1041.54,1128.82 1050.28,1133.39C1049.51,1094.27 1050.18,1087.96 1072.97,1128.11C1074.5,1099.74 1078.69,1081.64 1091.79,1098.12C1111.36,1114.62 1115.35,1112.79 1106.86,1104.53" style="fill:none;stroke:black;stroke-width:4.24px;"/>
                <path d="M1108.1,1029.82C1095.33,1068.32 1102.7,1070.91 1136.88,1016.85L1135.22,1053.69C1140.33,1040.3 1145.1,1026.54 1149.7,1012.6C1145.67,1030.73 1141.41,1048.46 1136.95,1065.85C1142.23,1049.38 1147.92,1033.54 1154.62,1019.26C1152.77,1031.6 1152.35,1043.9 1152.83,1056.17C1173.64,1024.19 1180.38,1009.56 1185.74,1030.59C1194.4,1069.31 1199.41,1079.76 1203.45,1082.66C1214.72,1060.61 1219.03,1026.15 1225.96,1013.52" style="fill:none;stroke:black;stroke-width:4.24px;"/>
            </g>
        </g>
    </g>
</svg>
