<?xml version="1.0" encoding="UTF-8" standalone="no"?>
<!DOCTYPE svg PUBLIC "-//W3C//DTD SVG 1.1//EN" "http://www.w3.org/Graphics/SVG/1.1/DTD/svg11.dtd">
<svg width="100%" height="100%" viewBox="0 0 425 425" version="1.1" xmlns="http://www.w3.org/2000/svg" xmlns:xlink="http://www.w3.org/1999/xlink" xml:space="preserve" xmlns:serif="http://www.serif.com/" style="fill-rule:evenodd;clip-rule:evenodd;stroke-linecap:round;stroke-linejoin:round;stroke-miterlimit:1.5;">
    <g transform="matrix(1,0,0,1,-7732.23,-15703.1)">
        <g transform="matrix(1,0,0,1,6223.82,14378.1)">
            <g transform="matrix(2.20112,0,0,2.20112,-5571.15,-33179.2)">
                <rect x="3216.35" y="15675.8" width="192.94" height="192.94" style="fill:none;"/>
                <g transform="matrix(1.21458,0,0,1.21458,-707.333,-3376.13)">
                    <path d="M3269.26,15831.7L3234.87,15831.7L3234.87,15813.8L3249.15,15813.8L3249.15,15699L3269.26,15699L3328.42,15793.3L3328.42,15717L3303.32,15717L3292.07,15699L3384.93,15699L3384.93,15717L3348.62,15717L3348.62,15831.7L3328.42,15831.7L3269.26,15737.4L3269.26,15831.7Z" style="fill:white;stroke:white;stroke-width:4.51px;"/>
                </g>
            </g>
        </g>
    </g>
</svg>
