<?xml version="1.0" encoding="UTF-8" standalone="no"?>
<!DOCTYPE svg PUBLIC "-//W3C//DTD SVG 1.1//EN" "http://www.w3.org/Graphics/SVG/1.1/DTD/svg11.dtd">
<svg width="100%" height="100%" viewBox="0 0 425 425" version="1.1" xmlns="http://www.w3.org/2000/svg" xmlns:xlink="http://www.w3.org/1999/xlink" xml:space="preserve" xmlns:serif="http://www.serif.com/" style="fill-rule:evenodd;clip-rule:evenodd;stroke-linejoin:round;stroke-miterlimit:1.41421;">
    <g transform="matrix(1,0,0,1,-6382.14,-13582)">
        <g transform="matrix(1,0,0,1,4873.73,12279.9)">
            <g>
                <g transform="matrix(2.20112,0,0,2.20112,-5571.15,-33202.2)">
                    <rect x="3216.35" y="15675.8" width="192.94" height="192.94" style="fill:none;"/>
                    <g transform="matrix(0.454315,0,0,0.454315,254.758,8552.09)">
                        <path d="M6622.51,16075.8L6530.57,16075.8L6528.26,16075.4L6526.3,16074.1C6525,16072.1 6524.99,16072.1 6524.53,16069.8L6524.53,16021.9C6524.99,16019.6 6525,16019.6 6526.3,16017.6L6528.26,16016.3L6530.57,16015.8L6562.71,16015.8L6562.71,15715.1L6563.17,15712.8L6564.48,15710.8L6566.44,15709.5L6568.75,15709L6622.51,15709C6624.25,15709.3 6624.84,15709.2 6626.28,15710.4C6626.81,15710.8 6627.18,15711.4 6627.62,15711.9L6774.62,15946.2L6774.62,15769L6713.56,15769C6711.83,15768.7 6711.24,15768.9 6709.8,15767.7C6709.27,15767.3 6708.9,15766.7 6708.45,15766.2L6678.38,15718.3C6677.85,15717 6677.32,15715.6 6677.53,15714.2C6677.85,15712 6679.41,15710.2 6681.39,15709.4C6682.06,15709.2 6682.79,15709.2 6683.49,15709L6931.74,15709L6934.05,15709.5C6934.7,15709.9 6935.36,15710.4 6936.01,15710.8C6937.31,15712.8 6937.32,15712.8 6937.78,15715.1L6937.78,15763C6937.32,15765.3 6937.31,15765.3 6936.01,15767.3L6934.05,15768.6L6931.74,15769L6840.7,15769L6840.7,16069.8L6840.24,16072.1L6838.94,16074.1L6836.98,16075.4L6834.67,16075.8L6780.66,16075.8C6779.99,16075.7 6779.3,16075.7 6778.66,16075.5C6776.93,16074.9 6776.72,16074.3 6775.55,16073L6628.55,15838.7L6628.55,16069.8L6628.09,16072.1L6626.78,16074.1L6624.82,16075.4L6622.51,16075.8Z"/>
                    </g>
                </g>
                <g transform="matrix(1,0,0,1,-4873.73,-12279.9)">
                    <path d="M6423.44,13839.6L6412.44,13839.6L6412.44,13837.7C6412.44,13836.9 6412.57,13836.4 6412.85,13836C6413.13,13835.7 6413.63,13835.5 6414.35,13835.4C6415.07,13835.3 6416.27,13835.2 6417.94,13835.2C6419.61,13835.2 6420.81,13835.3 6421.53,13835.4C6422.25,13835.5 6422.75,13835.7 6423.03,13836C6423.31,13836.4 6423.44,13836.9 6423.44,13837.7L6423.44,13839.6ZM6422.39,13837.7C6422.39,13837.2 6422.31,13836.8 6422.16,13836.6C6422,13836.4 6421.64,13836.3 6421.06,13836.2C6420.48,13836.2 6419.44,13836.1 6417.94,13836.1C6416.45,13836.1 6415.41,13836.2 6414.83,13836.2C6414.25,13836.3 6413.88,13836.4 6413.72,13836.6C6413.57,13836.8 6413.49,13837.2 6413.49,13837.7L6413.49,13838.8L6422.39,13838.8L6422.39,13837.7ZM6423.44,13833.8L6412.44,13833.8L6412.44,13830L6413.49,13830L6413.49,13832.9L6417.35,13832.9L6417.35,13830.4L6418.4,13830.4L6418.4,13832.9L6422.39,13832.9L6422.39,13830L6423.44,13830L6423.44,13833.8ZM6423.36,13828.9L6422.32,13828.9C6422.38,13828.7 6422.42,13828.4 6422.46,13828C6422.5,13827.7 6422.52,13827.4 6422.52,13827.2C6422.52,13826.9 6422.49,13826.7 6422.43,13826.5C6422.37,13826.3 6422.27,13826.1 6422.12,13826C6421.98,13825.9 6421.77,13825.8 6421.51,13825.8C6421.24,13825.8 6420.88,13825.8 6420.44,13825.8C6419.85,13825.8 6419.44,13825.8 6419.2,13825.8C6418.97,13825.8 6418.8,13825.9 6418.7,13826C6418.6,13826.1 6418.52,13826.3 6418.45,13826.6L6418.16,13828C6418.09,13828.3 6417.94,13828.5 6417.71,13828.7C6417.48,13828.9 6417.18,13829 6416.82,13829C6416.46,13829.1 6415.97,13829.1 6415.36,13829.1C6414.25,13829.1 6413.47,13828.9 6413,13828.6C6412.54,13828.2 6412.31,13827.7 6412.31,13826.9C6412.31,13826.2 6412.39,13825.6 6412.56,13825.2L6413.56,13825.2C6413.43,13825.7 6413.36,13826.2 6413.36,13826.7C6413.36,13827.1 6413.4,13827.3 6413.48,13827.5C6413.56,13827.7 6413.68,13827.9 6413.84,13828C6414,13828.1 6414.2,13828.2 6414.44,13828.2C6414.67,13828.2 6414.97,13828.2 6415.33,13828.2C6415.82,13828.2 6416.18,13828.2 6416.4,13828.2C6416.61,13828.2 6416.77,13828.1 6416.85,13828C6416.94,13827.9 6417.01,13827.7 6417.06,13827.5L6417.35,13826.2C6417.42,13825.9 6417.53,13825.6 6417.68,13825.4C6417.83,13825.3 6418.09,13825.1 6418.45,13825C6418.76,13824.9 6419.37,13824.9 6420.29,13824.9C6421.11,13824.9 6421.76,13824.9 6422.23,13825.1C6422.7,13825.2 6423.04,13825.4 6423.25,13825.7C6423.47,13826 6423.57,13826.4 6423.57,13826.9C6423.57,13827.7 6423.5,13828.3 6423.36,13828.9ZM6423.44,13823.5L6412.44,13823.5L6412.44,13822.7L6423.44,13822.7L6423.44,13823.5ZM6418.61,13818.9L6417.59,13818.9L6417.59,13816.8L6423.27,13816.8C6423.35,13817.1 6423.43,13817.4 6423.48,13817.8C6423.54,13818.1 6423.57,13818.4 6423.57,13818.7C6423.57,13819.4 6423.43,13820 6423.15,13820.3C6422.86,13820.6 6422.33,13820.9 6421.56,13821C6420.78,13821.1 6419.57,13821.2 6417.94,13821.2C6416.33,13821.2 6415.13,13821.1 6414.36,13821C6413.58,13820.9 6413.04,13820.6 6412.75,13820.3C6412.45,13820 6412.31,13819.4 6412.31,13818.7C6412.31,13818.4 6412.34,13818.1 6412.4,13817.7C6412.47,13817.4 6412.54,13817.1 6412.61,13816.9L6413.6,13816.9C6413.54,13817.1 6413.48,13817.3 6413.44,13817.6C6413.39,13817.9 6413.36,13818.2 6413.36,13818.3C6413.36,13819 6413.44,13819.4 6413.6,13819.7C6413.76,13819.9 6414.15,13820.1 6414.76,13820.2C6415.36,13820.3 6416.43,13820.3 6417.94,13820.3C6419.33,13820.3 6420.33,13820.3 6420.94,13820.2C6421.55,13820.1 6421.97,13820 6422.2,13819.8C6422.42,13819.6 6422.53,13819.2 6422.53,13818.7C6422.53,13818.3 6422.49,13818 6422.4,13817.7L6418.61,13817.7L6418.61,13818.9ZM6423.44,13815.4L6412.44,13815.4L6412.44,13814.4L6420.76,13811.7L6420.76,13811.7L6412.44,13811.7L6412.44,13810.8L6423.44,13810.8L6423.44,13811.7L6414.98,13814.5L6414.98,13814.5L6423.44,13814.5L6423.44,13815.4ZM6423.44,13809.2L6412.44,13809.2L6412.44,13805.4L6413.49,13805.4L6413.49,13808.3L6417.35,13808.3L6417.35,13805.8L6418.4,13805.8L6418.4,13808.3L6422.39,13808.3L6422.39,13805.4L6423.44,13805.4L6423.44,13809.2ZM6423.44,13804.1L6412.44,13804.1L6412.44,13802.2C6412.44,13801.5 6412.57,13800.9 6412.85,13800.6C6413.13,13800.2 6413.63,13800 6414.35,13799.9C6415.07,13799.8 6416.27,13799.8 6417.94,13799.8C6419.61,13799.8 6420.81,13799.8 6421.53,13799.9C6422.25,13800 6422.75,13800.2 6423.03,13800.6C6423.31,13800.9 6423.44,13801.5 6423.44,13802.2L6423.44,13804.1ZM6422.39,13802.3C6422.39,13801.7 6422.31,13801.4 6422.16,13801.2C6422,13801 6421.64,13800.8 6421.06,13800.8C6420.48,13800.7 6419.44,13800.7 6417.94,13800.7C6416.45,13800.7 6415.41,13800.7 6414.83,13800.8C6414.25,13800.8 6413.88,13801 6413.72,13801.2C6413.57,13801.4 6413.49,13801.7 6413.49,13802.3L6413.49,13803.3L6422.39,13803.3L6422.39,13802.3ZM6423.44,13792.3L6420.39,13792.8L6420.39,13795.3L6423.44,13795.8L6423.44,13796.7L6412.44,13794.6L6412.44,13793.5L6423.44,13791.4L6423.44,13792.3ZM6413.89,13794L6413.89,13794.1L6419.33,13795.1L6419.33,13793L6413.89,13794ZM6423.44,13790.3L6412.44,13790.3L6412.44,13789.4L6420.76,13786.7L6420.76,13786.6L6412.44,13786.6L6412.44,13785.8L6423.44,13785.8L6423.44,13786.7L6414.98,13789.4L6414.98,13789.5L6423.44,13789.5L6423.44,13790.3ZM6423.44,13784.2L6412.44,13784.2L6412.44,13782.2C6412.44,13781.5 6412.57,13780.9 6412.85,13780.6C6413.13,13780.2 6413.63,13780 6414.35,13779.9C6415.07,13779.8 6416.27,13779.8 6417.94,13779.8C6419.61,13779.8 6420.81,13779.8 6421.53,13779.9C6422.25,13780 6422.75,13780.2 6423.03,13780.6C6423.31,13780.9 6423.44,13781.5 6423.44,13782.2L6423.44,13784.2ZM6422.39,13782.3C6422.39,13781.7 6422.31,13781.4 6422.16,13781.2C6422,13781 6421.64,13780.8 6421.06,13780.8C6420.48,13780.7 6419.44,13780.7 6417.94,13780.7C6416.45,13780.7 6415.41,13780.7 6414.83,13780.8C6414.25,13780.8 6413.88,13781 6413.72,13781.2C6413.57,13781.4 6413.49,13781.8 6413.49,13782.3L6413.49,13783.3L6422.39,13783.3L6422.39,13782.3ZM6423.44,13776.1L6412.44,13776.1L6412.44,13774.2C6412.44,13773.4 6412.57,13772.9 6412.85,13772.5C6413.13,13772.2 6413.63,13772 6414.35,13771.9C6415.07,13771.8 6416.27,13771.7 6417.94,13771.7C6419.61,13771.7 6420.81,13771.8 6421.53,13771.9C6422.25,13772 6422.75,13772.2 6423.03,13772.5C6423.31,13772.9 6423.44,13773.4 6423.44,13774.2L6423.44,13776.1ZM6422.39,13774.2C6422.39,13773.7 6422.31,13773.3 6422.16,13773.1C6422,13772.9 6421.64,13772.8 6421.06,13772.7C6420.48,13772.7 6419.44,13772.6 6417.94,13772.6C6416.45,13772.6 6415.41,13772.7 6414.83,13772.7C6414.25,13772.8 6413.88,13772.9 6413.72,13773.1C6413.57,13773.3 6413.49,13773.7 6413.49,13774.2L6413.49,13775.2L6422.39,13775.2L6422.39,13774.2ZM6423.44,13770.3L6412.44,13770.3L6412.44,13766.5L6413.49,13766.5L6413.49,13769.4L6417.35,13769.4L6417.35,13766.9L6418.4,13766.9L6418.4,13769.4L6422.39,13769.4L6422.39,13766.5L6423.44,13766.5L6423.44,13770.3ZM6423.44,13763.9L6412.44,13766L6412.44,13765L6421.86,13763.4L6421.86,13763.3L6412.44,13761.7L6412.44,13760.8L6423.44,13762.8L6423.44,13763.9ZM6423.44,13759.9L6412.44,13759.9L6412.44,13756.1L6413.49,13756.1L6413.49,13759L6417.35,13759L6417.35,13756.4L6418.4,13756.4L6418.4,13759L6422.39,13759L6422.39,13756.1L6423.44,13756.1L6423.44,13759.9ZM6423.44,13754.8L6412.44,13754.8L6412.44,13753.9L6422.36,13753.9L6422.36,13751.3L6423.44,13751.3L6423.44,13754.8ZM6423.57,13748.2C6423.57,13748.9 6423.43,13749.5 6423.14,13749.8C6422.85,13750.1 6422.34,13750.3 6421.61,13750.4C6420.88,13750.5 6419.66,13750.6 6417.94,13750.6C6416.22,13750.6 6415,13750.5 6414.27,13750.4C6413.54,13750.3 6413.03,13750.1 6412.74,13749.8C6412.45,13749.5 6412.31,13748.9 6412.31,13748.2C6412.31,13747.4 6412.45,13746.9 6412.74,13746.5C6413.03,13746.2 6413.54,13746 6414.27,13745.9C6415,13745.8 6416.22,13745.8 6417.94,13745.8C6419.66,13745.8 6420.88,13745.8 6421.61,13745.9C6422.34,13746 6422.85,13746.2 6423.14,13746.5C6423.43,13746.9 6423.57,13747.4 6423.57,13748.2ZM6422.52,13748.2C6422.52,13747.7 6422.44,13747.3 6422.28,13747.1C6422.12,13746.9 6421.74,13746.8 6421.14,13746.7C6420.54,13746.7 6419.48,13746.6 6417.94,13746.6C6416.4,13746.6 6415.34,13746.7 6414.74,13746.7C6414.14,13746.8 6413.76,13746.9 6413.6,13747.1C6413.44,13747.3 6413.36,13747.7 6413.36,13748.2C6413.36,13748.7 6413.44,13749 6413.6,13749.2C6413.76,13749.4 6414.14,13749.5 6414.74,13749.6C6415.34,13749.6 6416.4,13749.7 6417.94,13749.7C6419.48,13749.7 6420.54,13749.6 6421.14,13749.6C6421.74,13749.5 6422.12,13749.4 6422.28,13749.2C6422.44,13749 6422.52,13748.7 6422.52,13748.2ZM6423.44,13744.3L6412.44,13744.3L6412.44,13741.9C6412.44,13741.4 6412.58,13741 6412.88,13740.7C6413.17,13740.4 6413.55,13740.3 6414.03,13740.2C6414.5,13740.1 6415.12,13740.1 6415.89,13740.1C6416.64,13740.1 6417.25,13740.1 6417.72,13740.2C6418.2,13740.3 6418.59,13740.4 6418.88,13740.7C6419.18,13741 6419.33,13741.4 6419.33,13741.9L6419.33,13743.4L6423.44,13743.4L6423.44,13744.3ZM6418.29,13742.2C6418.29,13741.8 6418.21,13741.5 6418.04,13741.3C6417.86,13741.2 6417.62,13741.1 6417.29,13741C6416.97,13741 6416.5,13740.9 6415.89,13740.9C6415.27,13740.9 6414.8,13741 6414.48,13741C6414.15,13741.1 6413.9,13741.2 6413.74,13741.3C6413.57,13741.5 6413.49,13741.8 6413.49,13742.2L6413.49,13743.4L6418.29,13743.4L6418.29,13742.2ZM6423.44,13738.9L6412.44,13738.9L6412.44,13735.1L6413.49,13735.1L6413.49,13738L6417.35,13738L6417.35,13735.5L6418.4,13735.5L6418.4,13738L6422.39,13738L6422.39,13735.1L6423.44,13735.1L6423.44,13738.9ZM6423.44,13733.8L6412.44,13733.8L6412.44,13731.9C6412.44,13731.1 6412.57,13730.6 6412.85,13730.3C6413.13,13729.9 6413.63,13729.7 6414.35,13729.6C6415.07,13729.5 6416.27,13729.5 6417.94,13729.5C6419.61,13729.5 6420.81,13729.5 6421.53,13729.6C6422.25,13729.7 6422.75,13729.9 6423.03,13730.3C6423.31,13730.6 6423.44,13731.1 6423.44,13731.9L6423.44,13733.8ZM6422.39,13732C6422.39,13731.4 6422.31,13731 6422.16,13730.8C6422,13730.6 6421.64,13730.5 6421.06,13730.4C6420.48,13730.4 6419.44,13730.3 6417.94,13730.3C6416.45,13730.3 6415.41,13730.4 6414.83,13730.4C6414.25,13730.5 6413.88,13730.6 6413.72,13730.9C6413.57,13731.1 6413.49,13731.4 6413.49,13732L6413.49,13733L6422.39,13733L6422.39,13732ZM6423.44,13725.8L6412.44,13725.8L6412.44,13723.3C6412.44,13722.7 6412.67,13722.2 6413.14,13721.9C6413.61,13721.6 6414.29,13721.5 6415.19,13721.5C6415.94,13721.5 6416.53,13721.6 6416.96,13721.8C6417.38,13722 6417.65,13722.3 6417.78,13722.7L6417.84,13722.7C6417.98,13722.2 6418.28,13721.9 6418.73,13721.7C6419.19,13721.5 6419.79,13721.4 6420.55,13721.4C6421.44,13721.4 6422.15,13721.6 6422.67,13721.8C6423.19,13722.1 6423.44,13722.6 6423.44,13723.4L6423.44,13725.8ZM6417.33,13723.6C6417.33,13723.2 6417.18,13722.9 6416.87,13722.7C6416.56,13722.5 6416.07,13722.4 6415.41,13722.4C6414.93,13722.4 6414.56,13722.4 6414.28,13722.5C6414.01,13722.5 6413.81,13722.7 6413.68,13722.8C6413.56,13723 6413.49,13723.3 6413.49,13723.6L6413.49,13724.9L6417.33,13724.9L6417.33,13723.6ZM6422.39,13723.6C6422.39,13723.1 6422.24,13722.7 6421.94,13722.6C6421.64,13722.4 6421.13,13722.3 6420.4,13722.3C6419.67,13722.3 6419.15,13722.4 6418.84,13722.6C6418.54,13722.8 6418.39,13723.1 6418.39,13723.6L6418.39,13724.9L6422.39,13724.9L6422.39,13723.6ZM6423.44,13719L6419.2,13719L6412.44,13721.1L6412.44,13720.1L6417.78,13718.6L6417.78,13718.5L6412.44,13716.9L6412.44,13716.1L6419.2,13718.1L6423.44,13718.1L6423.44,13719ZM6423.44,13713.2L6412.44,13713.2L6412.44,13712.3L6420.76,13709.6L6420.76,13709.5L6412.44,13709.5L6412.44,13708.7L6423.44,13708.7L6423.44,13709.6L6414.98,13712.3L6414.98,13712.4L6423.44,13712.4L6423.44,13713.2ZM6423.44,13707L6412.44,13707L6412.44,13706.1L6423.44,13706.1L6423.44,13707ZM6423.38,13701C6423.43,13701.2 6423.48,13701.4 6423.52,13701.6C6423.55,13701.9 6423.57,13702.1 6423.57,13702.3C6423.57,13703 6423.43,13703.5 6423.14,13703.9C6422.85,13704.2 6422.33,13704.4 6421.56,13704.5C6420.8,13704.6 6419.59,13704.7 6417.94,13704.7C6416.3,13704.7 6415.09,13704.6 6414.33,13704.5C6413.57,13704.4 6413.04,13704.2 6412.75,13703.9C6412.45,13703.5 6412.31,13703 6412.31,13702.3C6412.31,13702.1 6412.33,13701.9 6412.37,13701.6C6412.41,13701.4 6412.47,13701.2 6412.53,13701L6413.51,13701C6413.41,13701.5 6413.36,13701.8 6413.36,13702.1C6413.36,13702.7 6413.46,13703 6413.65,13703.3C6413.84,13703.5 6414.24,13703.6 6414.84,13703.7C6415.43,13703.8 6416.47,13703.8 6417.94,13703.8C6419.41,13703.8 6420.45,13703.8 6421.04,13703.7C6421.64,13703.6 6422.04,13703.5 6422.23,13703.3C6422.42,13703 6422.52,13702.7 6422.52,13702.1C6422.52,13701.7 6422.47,13701.4 6422.37,13701L6423.38,13701ZM6423.44,13699.8L6412.44,13699.8L6412.44,13698.9L6417.35,13698.9L6417.35,13696.2L6412.44,13696.2L6412.44,13695.3L6423.44,13695.3L6423.44,13696.2L6418.44,13696.2L6418.44,13698.9L6423.44,13698.9L6423.44,13699.8ZM6423.57,13691.4C6423.57,13692.2 6423.43,13692.8 6423.14,13693.1C6422.85,13693.4 6422.34,13693.6 6421.61,13693.7C6420.88,13693.8 6419.66,13693.9 6417.94,13693.9C6416.22,13693.9 6415,13693.8 6414.27,13693.7C6413.54,13693.6 6413.03,13693.4 6412.74,13693.1C6412.45,13692.8 6412.31,13692.2 6412.31,13691.4C6412.31,13690.7 6412.45,13690.1 6412.74,13689.8C6413.03,13689.5 6413.54,13689.3 6414.27,13689.2C6415,13689.1 6416.22,13689 6417.94,13689C6419.66,13689 6420.88,13689.1 6421.61,13689.2C6422.34,13689.3 6422.85,13689.5 6423.14,13689.8C6423.43,13690.1 6423.57,13690.7 6423.57,13691.4ZM6422.52,13691.4C6422.52,13690.9 6422.44,13690.6 6422.28,13690.4C6422.12,13690.2 6421.74,13690.1 6421.14,13690C6420.54,13690 6419.48,13689.9 6417.94,13689.9C6416.4,13689.9 6415.34,13690 6414.74,13690C6414.14,13690.1 6413.76,13690.2 6413.6,13690.4C6413.44,13690.6 6413.36,13690.9 6413.36,13691.4C6413.36,13691.9 6413.44,13692.3 6413.6,13692.5C6413.76,13692.7 6414.14,13692.8 6414.74,13692.9C6415.34,13692.9 6416.4,13693 6417.94,13693C6419.48,13693 6420.54,13692.9 6421.14,13692.9C6421.74,13692.8 6422.12,13692.7 6422.28,13692.5C6422.44,13692.3 6422.52,13691.9 6422.52,13691.4ZM6423.44,13687.6L6412.44,13687.6L6412.44,13686.7L6422.36,13686.7L6422.36,13684.1L6423.44,13684.1L6423.44,13687.6ZM6423.44,13679.3L6420.39,13679.9L6420.39,13682.4L6423.44,13682.9L6423.44,13683.8L6412.44,13681.7L6412.44,13680.5L6423.44,13678.4L6423.44,13679.3ZM6413.89,13681.1L6413.89,13681.2L6419.33,13682.1L6419.33,13680.1L6413.89,13681.1ZM6423.36,13677.7L6422.32,13677.7C6422.38,13677.5 6422.42,13677.2 6422.46,13676.8C6422.5,13676.5 6422.52,13676.2 6422.52,13676C6422.52,13675.7 6422.49,13675.5 6422.43,13675.3C6422.37,13675.1 6422.27,13674.9 6422.12,13674.8C6421.98,13674.7 6421.77,13674.6 6421.51,13674.6C6421.24,13674.6 6420.88,13674.5 6420.44,13674.5C6419.85,13674.5 6419.44,13674.6 6419.2,13674.6C6418.97,13674.6 6418.8,13674.7 6418.7,13674.8C6418.6,13674.9 6418.52,13675.1 6418.45,13675.4L6418.16,13676.8C6418.09,13677.1 6417.94,13677.3 6417.71,13677.5C6417.48,13677.7 6417.18,13677.8 6416.82,13677.8C6416.46,13677.9 6415.97,13677.9 6415.36,13677.9C6414.25,13677.9 6413.47,13677.7 6413,13677.4C6412.54,13677 6412.31,13676.5 6412.31,13675.7C6412.31,13675 6412.39,13674.4 6412.56,13674L6413.56,13674C6413.43,13674.5 6413.36,13675 6413.36,13675.5C6413.36,13675.9 6413.4,13676.1 6413.48,13676.3C6413.56,13676.5 6413.68,13676.7 6413.84,13676.8C6414,13676.9 6414.2,13676.9 6414.44,13677C6414.67,13677 6414.97,13677 6415.33,13677C6415.82,13677 6416.18,13677 6416.4,13677C6416.61,13676.9 6416.77,13676.9 6416.85,13676.8C6416.94,13676.7 6417.01,13676.5 6417.06,13676.3L6417.35,13675C6417.42,13674.7 6417.53,13674.4 6417.68,13674.2C6417.83,13674.1 6418.09,13673.9 6418.45,13673.8C6418.76,13673.7 6419.37,13673.7 6420.29,13673.7C6421.11,13673.7 6421.76,13673.7 6422.23,13673.9C6422.7,13674 6423.04,13674.2 6423.25,13674.5C6423.47,13674.8 6423.57,13675.2 6423.57,13675.7C6423.57,13676.5 6423.5,13677.1 6423.36,13677.7ZM6413.52,13670.8L6412.44,13670.8L6412.44,13666.3L6413.52,13666.3L6413.52,13668.1L6423.44,13668.1L6423.44,13669L6413.52,13669L6413.52,13670.8ZM6423.57,13663.3C6423.57,13664 6423.43,13664.6 6423.14,13664.9C6422.85,13665.2 6422.34,13665.4 6421.61,13665.5C6420.88,13665.6 6419.66,13665.7 6417.94,13665.7C6416.22,13665.7 6415,13665.6 6414.27,13665.5C6413.54,13665.4 6413.03,13665.2 6412.74,13664.9C6412.45,13664.6 6412.31,13664 6412.31,13663.3C6412.31,13662.5 6412.45,13662 6412.74,13661.6C6413.03,13661.3 6413.54,13661.1 6414.27,13661C6415,13660.9 6416.22,13660.9 6417.94,13660.9C6419.66,13660.9 6420.88,13660.9 6421.61,13661C6422.34,13661.1 6422.85,13661.3 6423.14,13661.6C6423.43,13662 6423.57,13662.5 6423.57,13663.3ZM6422.52,13663.3C6422.52,13662.8 6422.44,13662.4 6422.28,13662.2C6422.12,13662 6421.74,13661.9 6421.14,13661.8C6420.54,13661.8 6419.48,13661.7 6417.94,13661.7C6416.4,13661.7 6415.34,13661.8 6414.74,13661.8C6414.14,13661.9 6413.76,13662 6413.6,13662.2C6413.44,13662.4 6413.36,13662.8 6413.36,13663.3C6413.36,13663.8 6413.44,13664.1 6413.6,13664.3C6413.76,13664.5 6414.14,13664.6 6414.74,13664.7C6415.34,13664.7 6416.4,13664.8 6417.94,13664.8C6419.48,13664.8 6420.54,13664.7 6421.14,13664.7C6421.74,13664.6 6422.12,13664.5 6422.28,13664.3C6422.44,13664.1 6422.52,13663.8 6422.52,13663.3ZM6423.44,13659.4L6412.44,13659.4L6412.44,13657C6412.44,13656.3 6412.67,13655.8 6413.14,13655.6C6413.61,13655.3 6414.29,13655.1 6415.19,13655.1C6415.94,13655.1 6416.53,13655.2 6416.96,13655.4C6417.38,13655.6 6417.65,13655.9 6417.78,13656.3L6417.84,13656.3C6417.98,13655.8 6418.28,13655.5 6418.73,13655.3C6419.19,13655.1 6419.79,13655.1 6420.55,13655.1C6421.44,13655.1 6422.15,13655.2 6422.67,13655.5C6423.19,13655.8 6423.44,13656.3 6423.44,13657L6423.44,13659.4ZM6422.39,13657.2C6422.39,13656.7 6422.24,13656.4 6421.94,13656.2C6421.64,13656 6421.13,13655.9 6420.4,13655.9C6419.67,13655.9 6419.15,13656 6418.84,13656.2C6418.54,13656.4 6418.39,13656.7 6418.39,13657.2L6418.39,13658.6L6422.39,13658.6L6422.39,13657.2ZM6417.33,13657.2C6417.33,13656.8 6417.18,13656.5 6416.87,13656.3C6416.56,13656.1 6416.07,13656 6415.41,13656C6414.93,13656 6414.56,13656 6414.28,13656.1C6414.01,13656.2 6413.81,13656.3 6413.68,13656.5C6413.56,13656.6 6413.49,13656.9 6413.49,13657.2L6413.49,13658.6L6417.33,13658.6L6417.33,13657.2ZM6423.44,13649.8L6420.39,13650.4L6420.39,13652.9L6423.44,13653.4L6423.44,13654.3L6412.44,13652.2L6412.44,13651L6423.44,13648.9L6423.44,13649.8ZM6413.89,13651.6L6413.89,13651.7L6419.33,13652.6L6419.33,13650.6L6413.89,13651.6ZM6413.52,13649.4L6412.44,13649.4L6412.44,13644.9L6413.52,13644.9L6413.52,13646.7L6423.44,13646.7L6423.44,13647.6L6413.52,13647.6L6413.52,13649.4ZM6423.57,13639.4C6423.57,13640.2 6423.44,13640.8 6423.19,13641.1C6422.93,13641.5 6422.45,13641.7 6421.73,13641.8C6421.02,13641.9 6419.75,13641.9 6417.94,13641.9C6416.14,13641.9 6414.88,13641.9 6414.16,13641.8C6413.45,13641.7 6412.96,13641.5 6412.7,13641.1C6412.44,13640.8 6412.31,13640.2 6412.31,13639.4C6412.31,13638.6 6412.44,13638 6412.7,13637.6C6412.96,13637.3 6413.45,13637.1 6414.16,13637C6414.88,13636.9 6416.14,13636.9 6417.94,13636.9C6419.75,13636.9 6421.02,13636.9 6421.73,13637C6422.45,13637.1 6422.93,13637.3 6423.19,13637.6C6423.44,13638 6423.57,13638.6 6423.57,13639.4ZM6423,13639.4C6423,13638.7 6422.9,13638.2 6422.71,13637.9C6422.52,13637.7 6422.11,13637.5 6421.48,13637.4C6420.85,13637.4 6419.67,13637.3 6417.94,13637.3C6416.22,13637.3 6415.05,13637.4 6414.41,13637.4C6413.78,13637.5 6413.36,13637.7 6413.17,13637.9C6412.98,13638.2 6412.88,13638.7 6412.88,13639.4C6412.88,13640.1 6412.98,13640.6 6413.17,13640.8C6413.36,13641.1 6413.78,13641.3 6414.41,13641.3C6415.05,13641.4 6416.22,13641.5 6417.94,13641.5C6419.67,13641.5 6420.85,13641.4 6421.48,13641.3C6422.11,13641.3 6422.52,13641.1 6422.71,13640.8C6422.9,13640.6 6423,13640.1 6423,13639.4ZM6420.98,13639.2C6420.98,13639.6 6420.9,13639.8 6420.75,13640C6420.59,13640.2 6420.31,13640.3 6419.9,13640.4C6419.49,13640.4 6418.84,13640.4 6417.96,13640.4C6417.07,13640.4 6416.42,13640.4 6416.01,13640.4C6415.6,13640.3 6415.32,13640.2 6415.16,13640C6415,13639.8 6414.92,13639.5 6414.92,13639.2C6414.92,13638.9 6414.95,13638.7 6415.03,13638.5L6415.68,13638.5C6415.63,13638.7 6415.6,13638.9 6415.6,13639.1C6415.6,13639.3 6415.65,13639.5 6415.76,13639.6C6415.86,13639.7 6416.06,13639.8 6416.36,13639.8C6416.65,13639.9 6417.19,13639.9 6417.96,13639.9C6418.71,13639.9 6419.24,13639.9 6419.55,13639.8C6419.85,13639.8 6420.05,13639.7 6420.15,13639.6C6420.24,13639.5 6420.29,13639.3 6420.29,13639.1C6420.29,13638.8 6420.27,13638.6 6420.21,13638.5L6420.88,13638.5C6420.95,13638.7 6420.98,13638.9 6420.98,13639.2ZM6423.44,13635.5L6422.18,13635.5C6421.25,13635.5 6420.59,13635.5 6420.19,13635.5C6419.79,13635.4 6419.46,13635.3 6419.2,13635.2C6418.93,13635.1 6418.68,13634.9 6418.44,13634.5C6418.2,13634.3 6417.78,13633.8 6417.19,13633C6416.97,13632.7 6416.73,13632.6 6416.47,13632.5C6416.2,13632.4 6415.79,13632.4 6415.24,13632.4C6414.7,13632.4 6414.31,13632.4 6414.04,13632.5C6413.78,13632.6 6413.6,13632.7 6413.51,13632.9C6413.41,13633 6413.36,13633.3 6413.36,13633.7C6413.36,13634.1 6413.42,13634.7 6413.54,13635.4L6412.56,13635.4C6412.49,13635.2 6412.43,13634.9 6412.38,13634.5C6412.33,13634.1 6412.31,13633.8 6412.31,13633.5C6412.31,13633 6412.37,13632.7 6412.49,13632.4C6412.61,13632.1 6412.88,13631.9 6413.28,13631.7C6413.69,13631.6 6414.29,13631.5 6415.09,13631.5C6415.7,13631.5 6416.19,13631.5 6416.56,13631.6C6416.92,13631.7 6417.22,13631.8 6417.45,13631.9C6417.68,13632 6417.9,13632.2 6418.1,13632.5L6419.43,13634.2C6419.58,13634.4 6419.75,13634.5 6419.94,13634.6C6420.08,13634.6 6420.27,13634.6 6420.51,13634.6C6420.75,13634.6 6421.11,13634.7 6421.59,13634.7L6422.39,13634.7L6422.39,13631.5L6423.44,13631.5L6423.44,13635.5ZM6423.57,13628.1C6423.57,13628.8 6423.43,13629.3 6423.15,13629.6C6422.86,13629.9 6422.36,13630.1 6421.63,13630.2C6420.9,13630.3 6419.67,13630.3 6417.94,13630.3C6416.21,13630.3 6414.98,13630.3 6414.25,13630.2C6413.52,13630.1 6413.01,13629.9 6412.73,13629.6C6412.45,13629.3 6412.31,13628.8 6412.31,13628.1C6412.31,13627.4 6412.45,13626.9 6412.73,13626.6C6413.01,13626.3 6413.51,13626.1 6414.22,13626C6414.93,13626 6416.17,13625.9 6417.94,13625.9C6419.67,13625.9 6420.9,13626 6421.63,13626C6422.36,13626.1 6422.86,13626.3 6423.15,13626.6C6423.43,13626.9 6423.57,13627.4 6423.57,13628.1ZM6422.52,13628.1C6422.52,13627.7 6422.44,13627.4 6422.28,13627.2C6422.12,13627 6421.74,13626.9 6421.15,13626.9C6420.56,13626.8 6419.49,13626.8 6417.94,13626.8C6416.39,13626.8 6415.32,13626.8 6414.73,13626.9C6414.14,13626.9 6413.76,13627 6413.6,13627.2C6413.44,13627.4 6413.36,13627.7 6413.36,13628.1C6413.36,13628.6 6413.44,13628.9 6413.6,13629.1C6413.76,13629.2 6414.14,13629.3 6414.72,13629.4C6415.31,13629.4 6416.38,13629.5 6417.94,13629.5C6419.5,13629.5 6420.57,13629.4 6421.16,13629.4C6421.74,13629.3 6422.12,13629.2 6422.28,13629.1C6422.44,13628.9 6422.52,13628.6 6422.52,13628.1ZM6414.66,13625L6413.54,13625L6412.44,13623.6L6412.44,13623L6423.44,13623L6423.44,13623.9L6413.89,13623.9L6414.66,13625ZM6423.57,13619.2C6423.57,13619.9 6423.46,13620.3 6423.24,13620.7C6423.03,13621 6422.7,13621.2 6422.26,13621.3C6421.82,13621.5 6421.24,13621.5 6420.5,13621.5C6419.89,13621.5 6419.41,13621.5 6419.06,13621.4C6418.71,13621.3 6418.45,13621.2 6418.28,13621.1C6418.11,13620.9 6417.97,13620.7 6417.86,13620.4L6417.8,13620.4C6417.68,13620.8 6417.41,13621.1 6417,13621.2C6416.59,13621.4 6415.99,13621.5 6415.2,13621.5C6414.5,13621.5 6413.94,13621.4 6413.52,13621.3C6413.11,13621.1 6412.8,13620.9 6412.6,13620.6C6412.41,13620.3 6412.31,13619.8 6412.31,13619.2C6412.31,13618.7 6412.41,13618.2 6412.6,13617.9C6412.8,13617.6 6413.11,13617.3 6413.52,13617.2C6413.94,13617.1 6414.5,13617 6415.2,13617C6415.99,13617 6416.59,13617.1 6417,13617.3C6417.41,13617.4 6417.68,13617.7 6417.8,13618L6417.86,13618C6417.97,13617.8 6418.11,13617.6 6418.28,13617.4C6418.45,13617.3 6418.71,13617.2 6419.06,13617.1C6419.41,13617 6419.89,13617 6420.5,13617C6421.24,13617 6421.82,13617 6422.26,13617.1C6422.7,13617.3 6423.03,13617.5 6423.24,13617.8C6423.46,13618.1 6423.57,13618.6 6423.57,13619.2ZM6422.53,13619.2C6422.53,13618.9 6422.48,13618.6 6422.38,13618.4C6422.28,13618.2 6422.08,13618.1 6421.8,13618C6421.51,13617.9 6421.07,13617.8 6420.48,13617.8C6419.86,13617.8 6419.41,13617.9 6419.12,13618C6418.84,13618 6418.64,13618.2 6418.54,13618.4C6418.44,13618.5 6418.39,13618.8 6418.39,13619.2C6418.39,13619.6 6418.44,13619.9 6418.54,13620.1C6418.64,13620.3 6418.84,13620.4 6419.12,13620.5C6419.41,13620.6 6419.86,13620.6 6420.48,13620.6C6421.07,13620.6 6421.51,13620.6 6421.8,13620.5C6422.08,13620.4 6422.28,13620.3 6422.38,13620.1C6422.48,13619.9 6422.53,13619.6 6422.53,13619.2ZM6417.36,13619.2C6417.36,13618.9 6417.31,13618.6 6417.2,13618.4C6417.08,13618.2 6416.89,13618.1 6416.61,13618C6416.33,13617.9 6415.92,13617.9 6415.36,13617.9C6414.8,13617.9 6414.38,13617.9 6414.1,13618C6413.82,13618.1 6413.63,13618.2 6413.52,13618.4C6413.4,13618.6 6413.35,13618.9 6413.35,13619.2C6413.35,13619.6 6413.4,13619.9 6413.52,13620.1C6413.63,13620.3 6413.82,13620.4 6414.1,13620.5C6414.38,13620.5 6414.8,13620.6 6415.36,13620.6C6415.92,13620.6 6416.33,13620.5 6416.61,13620.5C6416.89,13620.4 6417.08,13620.3 6417.2,13620.1C6417.31,13619.9 6417.36,13619.6 6417.36,13619.2Z" style="fill-rule:nonzero;"/>
                </g>
                <g transform="matrix(1.00976,0,0,1.52672,-6299.61,-22770.9)">
                    <path d="M7773.43,15940.4L7762.53,15940.4L7762.53,15937.7L7773.43,15937.7L7773.43,15940.4ZM7763.52,15938.4L7763.52,15939.7L7772.44,15939.7L7772.44,15938.4L7763.52,15938.4Z"/>
                </g>
                <g transform="matrix(1.00976,0,0,1.52672,-6299.61,-22765)">
                    <path d="M7773.43,15940.4L7762.53,15940.4L7762.53,15937.7L7773.43,15937.7L7773.43,15940.4ZM7763.52,15938.4L7763.52,15939.7L7772.44,15939.7L7772.44,15938.4L7763.52,15938.4Z"/>
                </g>
                <g transform="matrix(1.00976,0,0,1.52672,-6299.61,-22759.2)">
                    <path d="M7773.43,15940.4L7762.53,15940.4L7762.53,15937.7L7773.43,15937.7L7773.43,15940.4ZM7763.52,15938.4L7763.52,15939.7L7772.44,15939.7L7772.44,15938.4L7763.52,15938.4Z"/>
                </g>
                <g transform="matrix(1.00976,0,0,1.52672,-6299.61,-22753.3)">
                    <path d="M7773.43,15940.4L7762.53,15940.4L7762.53,15937.7L7773.43,15937.7L7773.43,15940.4ZM7763.52,15938.4L7763.52,15939.7L7772.44,15939.7L7772.44,15938.4L7763.52,15938.4Z"/>
                </g>
                <g transform="matrix(1.00976,0,0,1.52672,-6299.61,-22747.5)">
                    <path d="M7773.43,15940.4L7762.53,15940.4L7762.53,15937.7L7773.43,15937.7L7773.43,15940.4ZM7763.52,15938.4L7763.52,15939.7L7772.44,15939.7L7772.44,15938.4L7763.52,15938.4Z"/>
                </g>
                <g transform="matrix(1.00976,0,0,1.52672,-6299.61,-22741.6)">
                    <path d="M7773.43,15940.4L7762.53,15940.4L7762.53,15937.7L7773.43,15937.7L7773.43,15940.4ZM7763.52,15938.4L7763.52,15939.7L7772.44,15939.7L7772.44,15938.4L7763.52,15938.4Z"/>
                </g>
                <g transform="matrix(1.00976,0,0,1.52672,-6299.61,-22735.7)">
                    <path d="M7773.43,15940.4L7762.53,15940.4L7762.53,15937.7L7773.43,15937.7L7773.43,15940.4ZM7763.52,15938.4L7763.52,15939.7L7772.44,15939.7L7772.44,15938.4L7763.52,15938.4Z"/>
                </g>
                <g transform="matrix(1.00976,0,0,1.52672,-6299.61,-22729.9)">
                    <path d="M7773.43,15940.4L7762.53,15940.4L7762.53,15937.7L7773.43,15937.7L7773.43,15940.4ZM7763.52,15938.4L7763.52,15939.7L7772.44,15939.7L7772.44,15938.4L7763.52,15938.4Z"/>
                </g>
                <g transform="matrix(1.00976,0,0,1.52672,-6299.61,-22724)">
                    <path d="M7773.43,15940.4L7762.53,15940.4L7762.53,15937.7L7773.43,15937.7L7773.43,15940.4ZM7763.52,15938.4L7763.52,15939.7L7772.44,15939.7L7772.44,15938.4L7763.52,15938.4Z"/>
                </g>
                <g transform="matrix(1.00976,0,0,1.52672,-6299.61,-22718.2)">
                    <path d="M7773.43,15940.4L7762.53,15940.4L7762.53,15937.7L7773.43,15937.7L7773.43,15940.4ZM7763.52,15938.4L7763.52,15939.7L7772.44,15939.7L7772.44,15938.4L7763.52,15938.4Z"/>
                </g>
                <g transform="matrix(1.00976,0,0,1.52672,-6299.61,-22712.3)">
                    <path d="M7773.43,15940.4L7762.53,15940.4L7762.53,15937.7L7773.43,15937.7L7773.43,15940.4ZM7763.52,15938.4L7763.52,15939.7L7772.44,15939.7L7772.44,15938.4L7763.52,15938.4Z"/>
                </g>
                <g transform="matrix(1.00976,0,0,1.52672,-6299.61,-22706.5)">
                    <path d="M7773.43,15940.4L7762.53,15940.4L7762.53,15937.7L7773.43,15937.7L7773.43,15940.4ZM7763.52,15938.4L7763.52,15939.7L7772.44,15939.7L7772.44,15938.4L7763.52,15938.4Z"/>
                </g>
                <g transform="matrix(1.00976,0,0,1.52672,-6299.61,-22700.6)">
                    <path d="M7773.43,15940.4L7762.53,15940.4L7762.53,15937.7L7773.43,15937.7L7773.43,15940.4ZM7763.52,15938.4L7763.52,15939.7L7772.44,15939.7L7772.44,15938.4L7763.52,15938.4Z"/>
                </g>
            </g>
        </g>
    </g>
</svg>
