<?xml version="1.0" encoding="UTF-8" standalone="no"?>
<!DOCTYPE svg PUBLIC "-//W3C//DTD SVG 1.1//EN" "http://www.w3.org/Graphics/SVG/1.1/DTD/svg11.dtd">
<svg width="100%" height="100%" viewBox="0 0 425 425" version="1.1" xmlns="http://www.w3.org/2000/svg" xmlns:xlink="http://www.w3.org/1999/xlink" xml:space="preserve" xmlns:serif="http://www.serif.com/" style="fill-rule:evenodd;clip-rule:evenodd;stroke-linecap:round;stroke-linejoin:round;stroke-miterlimit:1.5;">
    <g transform="matrix(1,0,0,1,-7732.23,-15680.1)">
        <g transform="matrix(1,0,0,1,6223.82,14378.1)">
            <g transform="matrix(2.20112,0,0,2.20112,-5571.15,-33202.2)">
                <rect x="3216.35" y="15675.8" width="192.94" height="192.94" style="fill:none;"/>
                <g transform="matrix(1.21458,0,0,1.21458,-707.333,-3376.13)">
                    <path d="M3269.26,15831.7L3234.87,15831.7L3234.87,15813.8L3249.15,15813.8L3249.15,15699L3269.26,15699L3328.42,15793.3L3328.42,15717L3303.32,15717L3292.07,15699L3384.93,15699L3384.93,15717L3348.62,15717L3348.62,15831.7L3328.42,15831.7L3269.26,15737.4L3269.26,15831.7Z" style="fill:white;stroke:white;stroke-width:4.51px;"/>
                </g>
            </g>
        </g>
        <g transform="matrix(1,0,0,1,6223.82,14378.1)">
            <g transform="matrix(4.17647e-18,-0.73,1,5.72119e-18,-7368.51,7053.71)">
                <text x="7524.95px" y="8918.23px" style="font-family:'SairaCondensed-Regular', 'Saira Condensed';font-stretch:condensed;font-size:16px;fill:white;">DESIGNED AND DEVELOPED B<tspan x="7688.43px 7695.03px " y="8918.23px 8918.23px ">Y </tspan>NICHOLA<tspan x="7746.96px " y="8918.23px ">S</tspan> T<tspan x="7763.51px " y="8918.23px ">O</tspan>BA<tspan x="7786.43px 7792.71px " y="8918.23px 8918.23px ">T </tspan>©2018</text>
            </g>
        </g>
        <g transform="matrix(1,0,0,1,6223.82,14378.1)">
            <g transform="matrix(1.00976,0,0,1.52672,-6299.61,-22770.9)">
                <path d="M7773.43,15940.4L7762.53,15940.4L7762.53,15937.7L7773.43,15937.7L7773.43,15940.4ZM7763.52,15938.4L7763.52,15939.7L7772.44,15939.7L7772.44,15938.4L7763.52,15938.4Z" style="fill:white;"/>
            </g>
        </g>
        <g transform="matrix(1,0,0,1,6223.82,14378.1)">
            <g transform="matrix(1.00976,0,0,1.52672,-6299.61,-22765)">
                <path d="M7773.43,15940.4L7762.53,15940.4L7762.53,15937.7L7773.43,15937.7L7773.43,15940.4ZM7763.52,15938.4L7763.52,15939.7L7772.44,15939.7L7772.44,15938.4L7763.52,15938.4Z" style="fill:white;"/>
            </g>
        </g>
        <g transform="matrix(1,0,0,1,6223.82,14378.1)">
            <g transform="matrix(1.00976,0,0,1.52672,-6299.61,-22759.2)">
                <path d="M7773.43,15940.4L7762.53,15940.4L7762.53,15937.7L7773.43,15937.7L7773.43,15940.4ZM7763.52,15938.4L7763.52,15939.7L7772.44,15939.7L7772.44,15938.4L7763.52,15938.4Z" style="fill:white;"/>
            </g>
        </g>
        <g transform="matrix(1,0,0,1,6223.82,14378.1)">
            <g transform="matrix(1.00976,0,0,1.52672,-6299.61,-22753.3)">
                <path d="M7773.43,15940.4L7762.53,15940.4L7762.53,15937.7L7773.43,15937.7L7773.43,15940.4ZM7763.52,15938.4L7763.52,15939.7L7772.44,15939.7L7772.44,15938.4L7763.52,15938.4Z" style="fill:white;"/>
            </g>
        </g>
        <g transform="matrix(1,0,0,1,6223.82,14378.1)">
            <g transform="matrix(1.00976,0,0,1.52672,-6299.61,-22747.5)">
                <path d="M7773.43,15940.4L7762.53,15940.4L7762.53,15937.7L7773.43,15937.7L7773.43,15940.4ZM7763.52,15938.4L7763.52,15939.7L7772.44,15939.7L7772.44,15938.4L7763.52,15938.4Z" style="fill:white;"/>
            </g>
        </g>
        <g transform="matrix(1,0,0,1,6223.82,14378.1)">
            <g transform="matrix(1.00976,0,0,1.52672,-6299.61,-22741.6)">
                <path d="M7773.43,15940.4L7762.53,15940.4L7762.53,15937.7L7773.43,15937.7L7773.43,15940.4ZM7763.52,15938.4L7763.52,15939.7L7772.44,15939.7L7772.44,15938.4L7763.52,15938.4Z" style="fill:white;"/>
            </g>
        </g>
        <g transform="matrix(1,0,0,1,6223.82,14378.1)">
            <g transform="matrix(1.00976,0,0,1.52672,-6299.61,-22735.7)">
                <path d="M7773.43,15940.4L7762.53,15940.4L7762.53,15937.7L7773.43,15937.7L7773.43,15940.4ZM7763.52,15938.4L7763.52,15939.7L7772.44,15939.7L7772.44,15938.4L7763.52,15938.4Z" style="fill:white;"/>
            </g>
        </g>
        <g transform="matrix(1,0,0,1,6223.82,14378.1)">
            <g transform="matrix(1.00976,0,0,1.52672,-6299.61,-22729.9)">
                <path d="M7773.43,15940.4L7762.53,15940.4L7762.53,15937.7L7773.43,15937.7L7773.43,15940.4ZM7763.52,15938.4L7763.52,15939.7L7772.44,15939.7L7772.44,15938.4L7763.52,15938.4Z" style="fill:white;"/>
            </g>
        </g>
        <g transform="matrix(1,0,0,1,6223.82,14378.1)">
            <g transform="matrix(1.00976,0,0,1.52672,-6299.61,-22724)">
                <path d="M7773.43,15940.4L7762.53,15940.4L7762.53,15937.7L7773.43,15937.7L7773.43,15940.4ZM7763.52,15938.4L7763.52,15939.7L7772.44,15939.7L7772.44,15938.4L7763.52,15938.4Z" style="fill:white;"/>
            </g>
        </g>
        <g transform="matrix(1,0,0,1,6223.82,14378.1)">
            <g transform="matrix(1.00976,0,0,1.52672,-6299.61,-22718.2)">
                <path d="M7773.43,15940.4L7762.53,15940.4L7762.53,15937.7L7773.43,15937.7L7773.43,15940.4ZM7763.52,15938.4L7763.52,15939.7L7772.44,15939.7L7772.44,15938.4L7763.52,15938.4Z" style="fill:white;"/>
            </g>
        </g>
        <g transform="matrix(1,0,0,1,6223.82,14378.1)">
            <g transform="matrix(1.00976,0,0,1.52672,-6299.61,-22712.3)">
                <path d="M7773.43,15940.4L7762.53,15940.4L7762.53,15937.7L7773.43,15937.7L7773.43,15940.4ZM7763.52,15938.4L7763.52,15939.7L7772.44,15939.7L7772.44,15938.4L7763.52,15938.4Z" style="fill:white;"/>
            </g>
        </g>
        <g transform="matrix(1,0,0,1,6223.82,14378.1)">
            <g transform="matrix(1.00976,0,0,1.52672,-6299.61,-22706.5)">
                <path d="M7773.43,15940.4L7762.53,15940.4L7762.53,15937.7L7773.43,15937.7L7773.43,15940.4ZM7763.52,15938.4L7763.52,15939.7L7772.44,15939.7L7772.44,15938.4L7763.52,15938.4Z" style="fill:white;"/>
            </g>
        </g>
        <g transform="matrix(1,0,0,1,6223.82,14378.1)">
            <g transform="matrix(1.00976,0,0,1.52672,-6299.61,-22700.6)">
                <path d="M7773.43,15940.4L7762.53,15940.4L7762.53,15937.7L7773.43,15937.7L7773.43,15940.4ZM7763.52,15938.4L7763.52,15939.7L7772.44,15939.7L7772.44,15938.4L7763.52,15938.4Z" style="fill:white;"/>
            </g>
        </g>
    </g>
</svg>
