<svg viewBox="0 0 414 367" xmlns="http://www.w3.org/2000/svg" fill-rule="evenodd" clip-rule="evenodd" stroke-linejoin="round" stroke-miterlimit="1.414"><path d="M97.993 366.906H6.053l-2.31-.4-1.96-1.3c-1.3-2-1.31-2-1.77-4.3v-47.9c.46-2.3.47-2.3 1.77-4.3l1.96-1.3 2.31-.5h32.14V6.206l.46-2.3 1.31-2 1.96-1.3 2.31-.5h53.76c1.74.3 2.33.2 3.77 1.4.53.4.9 1 1.34 1.5l147 234.3v-177.2h-61.06c-1.73-.3-2.32-.1-3.76-1.3-.53-.4-.9-1-1.35-1.5l-30.07-47.9c-.53-1.3-1.06-2.7-.85-4.1.32-2.2 1.88-4 3.86-4.8.67-.2 1.4-.2 2.1-.4h248.25l2.31.5c.65.4 1.31.9 1.96 1.3 1.3 2 1.31 2 1.77 4.3v47.9c-.46 2.3-.47 2.3-1.77 4.3l-1.96 1.3-2.31.4h-91.04v300.8l-.46 2.3-1.3 2-1.96 1.3-2.31.4h-54.01c-.67-.1-1.36-.1-2-.3-1.73-.6-1.94-1.2-3.11-2.5l-147-234.3v231.1l-.46 2.3-1.31 2-1.96 1.3-2.31.4z"/></svg>