<?xml version="1.0" encoding="UTF-8" standalone="no"?>
<!DOCTYPE svg PUBLIC "-//W3C//DTD SVG 1.1//EN" "http://www.w3.org/Graphics/SVG/1.1/DTD/svg11.dtd">
<svg width="100%" height="100%" viewBox="0 0 414 367" version="1.1" xmlns="http://www.w3.org/2000/svg" xmlns:xlink="http://www.w3.org/1999/xlink" xml:space="preserve" xmlns:serif="http://www.serif.com/" style="fill-rule:evenodd;clip-rule:evenodd;stroke-linejoin:round;stroke-miterlimit:1.41421;">
    <g transform="matrix(1,0,0,1,-6524.53,-15709)">
        <g transform="matrix(2.20112,0,0,2.20112,-560.752,-18824.1)">
            <g transform="matrix(0.454315,0,0,0.454315,254.758,8552.09)">
                <path d="M6622.51,16075.8L6530.57,16075.8L6528.26,16075.4L6526.3,16074.1C6525,16072.1 6524.99,16072.1 6524.53,16069.8L6524.53,16021.9C6524.99,16019.6 6525,16019.6 6526.3,16017.6L6528.26,16016.3L6530.57,16015.8L6562.71,16015.8L6562.71,15715.1L6563.17,15712.8L6564.48,15710.8L6566.44,15709.5L6568.75,15709L6622.51,15709C6624.25,15709.3 6624.84,15709.2 6626.28,15710.4C6626.81,15710.8 6627.18,15711.4 6627.62,15711.9L6774.62,15946.2L6774.62,15769L6713.56,15769C6711.83,15768.7 6711.24,15768.9 6709.8,15767.7C6709.27,15767.3 6708.9,15766.7 6708.45,15766.2L6678.38,15718.3C6677.85,15717 6677.32,15715.6 6677.53,15714.2C6677.85,15712 6679.41,15710.2 6681.39,15709.4C6682.06,15709.2 6682.79,15709.2 6683.49,15709L6931.74,15709L6934.05,15709.5C6934.7,15709.9 6935.36,15710.4 6936.01,15710.8C6937.31,15712.8 6937.32,15712.8 6937.78,15715.1L6937.78,15763C6937.32,15765.3 6937.31,15765.3 6936.01,15767.3L6934.05,15768.6L6931.74,15769L6840.7,15769L6840.7,16069.8L6840.24,16072.1L6838.94,16074.1L6836.98,16075.4L6834.67,16075.8L6780.66,16075.8C6779.99,16075.7 6779.3,16075.7 6778.66,16075.5C6776.93,16074.9 6776.72,16074.3 6775.55,16073L6628.55,15838.7L6628.55,16069.8L6628.09,16072.1L6626.78,16074.1L6624.82,16075.4L6622.51,16075.8Z"/>
            </g>
        </g>
    </g>
</svg>
