<?xml version="1.0" encoding="UTF-8" standalone="no"?>
<!DOCTYPE svg PUBLIC "-//W3C//DTD SVG 1.1//EN" "http://www.w3.org/Graphics/SVG/1.1/DTD/svg11.dtd">
<svg width="100%" height="100%" viewBox="0 0 51 43" version="1.1" xmlns="http://www.w3.org/2000/svg" xmlns:xlink="http://www.w3.org/1999/xlink" xml:space="preserve" xmlns:serif="http://www.serif.com/" style="fill-rule:evenodd;clip-rule:evenodd;stroke-linejoin:round;stroke-miterlimit:1.41421;">
    <g transform="matrix(1,0,0,1,-4.79954,-2.67924)">
        <path d="M54.716,8.633L42.116,2.753C42.103,2.747 42.089,2.746 42.076,2.74C42.041,2.726 42.005,2.715 41.969,2.706C41.938,2.698 41.909,2.691 41.879,2.687C41.841,2.681 41.803,2.68 41.764,2.68C41.733,2.68 41.702,2.68 41.671,2.683C41.635,2.687 41.601,2.695 41.565,2.704C41.532,2.712 41.498,2.72 41.465,2.732C41.454,2.736 41.441,2.737 41.429,2.742L30,7.64L18.571,2.742C18.563,2.739 18.556,2.739 18.548,2.735C18.514,2.722 18.48,2.714 18.446,2.706C18.414,2.698 18.382,2.688 18.349,2.683C18.314,2.679 18.279,2.68 18.244,2.68C18.211,2.68 18.179,2.677 18.147,2.682C18.111,2.686 18.076,2.696 18.041,2.704C18.01,2.712 17.979,2.718 17.948,2.729C17.942,2.731 17.934,2.731 17.927,2.735L5.327,7.775C5.009,7.902 4.8,8.211 4.8,8.554L4.8,44.675C4.8,44.954 4.938,45.214 5.168,45.37C5.309,45.465 5.474,45.515 5.64,45.515C5.745,45.515 5.85,45.496 5.952,45.455L18.23,40.545L29.67,45.447C29.682,45.452 29.694,45.449 29.706,45.454C29.802,45.491 29.9,45.515 30.001,45.515C30.102,45.515 30.201,45.491 30.296,45.454C30.307,45.45 30.32,45.452 30.332,45.447L41.772,40.545L54.05,45.455C54.15,45.496 54.256,45.515 54.362,45.515C54.528,45.515 54.692,45.465 54.833,45.37C55.062,45.214 55.2,44.954 55.2,44.675L55.2,9.394C55.2,9.067 55.011,8.771 54.716,8.633ZM6.48,9.123L17.4,4.755L17.4,39.066L6.48,43.434L6.48,9.123ZM30.84,9.108L40.92,4.788L40.92,39.08L30.84,43.401L30.84,9.108Z" style="fill:white;fill-rule:nonzero;"/>
    </g>
</svg>
