<?xml version="1.0" encoding="UTF-8" standalone="no"?>
<!DOCTYPE svg PUBLIC "-//W3C//DTD SVG 1.1//EN" "http://www.w3.org/Graphics/SVG/1.1/DTD/svg11.dtd">
<svg width="100%" height="100%" viewBox="0 0 93 25" version="1.1" xmlns="http://www.w3.org/2000/svg" xmlns:xlink="http://www.w3.org/1999/xlink" xml:space="preserve" xmlns:serif="http://www.serif.com/" style="fill-rule:evenodd;clip-rule:evenodd;stroke-linejoin:round;stroke-miterlimit:1.41421;">
    <g transform="matrix(1,0,0,1,-18377.2,-13569.5)">
        <g transform="matrix(1.86403,0,0,1.12489,2324.61,-5031.23)">
            <g transform="matrix(0.244466,0,0,0.87367,6443.62,2909.77)">
                <rect x="9002.28" y="15596" width="69.857" height="3.737" style="fill:white;"/>
            </g>
        </g>
        <g transform="matrix(1.86403,0,0,1.12489,2324.61,-5031.23)">
            <g transform="matrix(0.244466,0,0,0.87367,6443.62,2919.15)">
                <rect x="9002.28" y="15596" width="69.857" height="3.737" style="fill:white;"/>
            </g>
        </g>
        <g transform="matrix(1.86403,0,0,1.12489,2324.61,-5031.23)">
            <g transform="matrix(0.244466,0,0,0.87367,6443.62,2928.68)">
                <rect x="9002.28" y="15596" width="69.857" height="3.737" style="fill:white;"/>
            </g>
        </g>
        <g transform="matrix(1.86403,0,0,1.12489,2324.61,-5031.23)">
            <g transform="matrix(0.536472,0,0,0.888976,-1247.09,4472.65)">
                <path d="M18422.4,13574.2L18422.4,13582.6C18422.4,13584.6 18422.3,13586.1 18422.1,13587C18422,13587.9 18421.6,13588.5 18420.9,13588.9C18420.3,13589.3 18419.3,13589.5 18417.9,13589.5C18416.4,13589.5 18415.4,13589.3 18414.8,13588.9C18414.2,13588.5 18413.8,13587.9 18413.6,13587C18413.4,13586.1 18413.4,13584.6 18413.4,13582.6L18413.4,13574.2L18416.4,13574.2L18416.4,13583.6C18416.4,13584.7 18416.4,13585.4 18416.4,13585.8C18416.5,13586.2 18416.6,13586.5 18416.8,13586.6C18417,13586.8 18417.4,13586.8 18417.9,13586.8C18418.4,13586.8 18418.7,13586.8 18418.9,13586.6C18419.1,13586.5 18419.2,13586.3 18419.3,13585.9C18419.3,13585.5 18419.3,13584.7 18419.3,13583.6L18419.3,13574.2L18422.4,13574.2ZM18380,13589.3L18377.2,13589.3L18377.2,13574.2L18381.8,13574.2L18383.8,13584.7L18383.9,13584.7L18385.9,13574.2L18390.4,13574.2L18390.4,13589.3L18387.5,13589.3L18387.5,13578.2L18387.3,13578.2L18385.2,13589.3L18382.4,13589.3L18380.2,13578.2L18380,13578.2L18380,13589.3ZM18400,13576.9L18395.7,13576.9L18395.7,13580.4L18399.4,13580.4L18399.4,13583L18395.7,13583L18395.7,13586.7L18400,13586.7L18400,13589.3L18392.7,13589.3L18392.7,13574.2L18400,13574.2L18400,13576.9ZM18404.8,13589.3L18401.9,13589.3L18401.9,13574.2L18404.9,13574.2L18408.1,13581.9L18408.3,13581.9L18408.3,13574.2L18411.2,13574.2L18411.2,13589.3L18408.4,13589.3L18404.9,13581L18404.8,13581L18404.8,13589.3Z" style="fill:white;fill-rule:nonzero;"/>
            </g>
        </g>
    </g>
</svg>
