<?xml version="1.0" encoding="UTF-8" standalone="no"?>
<!DOCTYPE svg PUBLIC "-//W3C//DTD SVG 1.1//EN" "http://www.w3.org/Graphics/SVG/1.1/DTD/svg11.dtd">
<svg width="100%" height="100%" viewBox="0 0 36 32" version="1.1" xmlns="http://www.w3.org/2000/svg" xmlns:xlink="http://www.w3.org/1999/xlink" xml:space="preserve" xmlns:serif="http://www.serif.com/" style="fill-rule:evenodd;clip-rule:evenodd;stroke-linejoin:round;stroke-miterlimit:1.41421;">
    <g transform="matrix(1,0,0,1,-9027.84,-14753)">
        <g transform="matrix(1.52246,0,0,0.918764,-4132.21,-423.711)">
            <g transform="matrix(1.38462,0,0,1.38462,-3325.2,-6370.4)">
                <g transform="matrix(0.39392,0,0,0.819192,5089.18,4445.45)">
                    <rect x="9025.15" y="14753" width="43.353" height="30.707" style="fill:none;"/>
                </g>
                <g transform="matrix(1,0,0,1,-0.234974,-0.00903733)">
                    <g transform="matrix(0.217303,0,0,0.841312,6689.33,3412.96)">
                        <rect x="9002.28" y="15596" width="69.857" height="3.737" style="fill:white;"/>
                    </g>
                    <g transform="matrix(0.217303,0,0,0.841312,6689.33,3420.82)">
                        <rect x="9002.28" y="15596" width="69.857" height="3.737" style="fill:white;"/>
                    </g>
                    <g transform="matrix(0.217303,0,0,0.841312,6689.33,3428.68)">
                        <rect x="9002.28" y="15596" width="69.857" height="3.737" style="fill:white;"/>
                    </g>
                </g>
            </g>
        </g>
    </g>
</svg>
