<?xml version="1.0" encoding="UTF-8" standalone="no"?>
<!DOCTYPE svg PUBLIC "-//W3C//DTD SVG 1.1//EN" "http://www.w3.org/Graphics/SVG/1.1/DTD/svg11.dtd">
<svg width="100%" height="100%" viewBox="0 0 36 32" version="1.1" xmlns="http://www.w3.org/2000/svg" xmlns:xlink="http://www.w3.org/1999/xlink" xml:space="preserve" xmlns:serif="http://www.serif.com/" style="fill-rule:evenodd;clip-rule:evenodd;stroke-linejoin:round;stroke-miterlimit:1.41421;">
    <g transform="matrix(1,0,0,1,-9027.84,-14753)">
        <g transform="matrix(1.52246,0,0,0.918764,-4132.21,-423.711)">
            <g transform="matrix(1.38462,0,0,1.38462,-3325.2,-6370.4)">
                <g transform="matrix(0.39392,0,0,0.819192,5089.18,4445.45)">
                    <rect x="9025.15" y="14753" width="43.353" height="30.707" style="fill:none;"/>
                </g>
                <g transform="matrix(0.454282,0,0,0.752781,4543.54,5422.79)">
                    <path d="M9045.84,14769.9L9057.1,14758.7L9060.04,14761.6L9048.78,14772.9L9060.04,14784.1L9057.1,14787.1L9045.84,14775.8L9034.58,14787.1L9031.65,14784.1L9042.9,14772.9L9031.65,14761.6L9034.58,14758.7L9045.84,14769.9Z"/>
                </g>
            </g>
        </g>
    </g>
</svg>
