<svg viewBox="1 -1 511.99899 511" xmlns="http://www.w3.org/2000/svg"><path d="m335.785156 37.089844h-159.570312c-4.210938 0-7.621094 3.414062-7.621094 7.625 0 4.207031 3.410156 7.621094 7.621094 7.621094h159.570312c4.210938 0 7.621094-3.414063 7.621094-7.621094 0-4.210938-3.410156-7.625-7.621094-7.625zm0 0"/><path d="m335.785156 69.105469h-159.570312c-4.210938 0-7.621094 3.414062-7.621094 7.621093 0 4.210938 3.410156 7.625 7.621094 7.625h159.570312c4.210938 0 7.621094-3.414062 7.621094-7.625 0-4.207031-3.410156-7.621093-7.621094-7.621093zm0 0"/><path d="m335.785156 101.121094h-159.570312c-4.210938 0-7.621094 3.410156-7.621094 7.621094 0 4.210937 3.410156 7.621093 7.621094 7.621093h159.570312c4.210938 0 7.621094-3.410156 7.621094-7.621093 0-4.210938-3.410156-7.621094-7.621094-7.621094zm0 0"/><path d="m45.230469 366.222656h42.175781c4.210938 0 7.625-3.414062 7.625-7.621094 0-4.210937-3.414062-7.625-7.625-7.625h-42.175781c-4.210938 0-7.625 3.414063-7.625 7.625 0 4.207032 3.414062 7.621094 7.625 7.621094zm0 0"/><path d="m45.230469 421.195312h42.175781c4.210938 0 7.625-3.410156 7.625-7.621093 0-4.210938-3.414062-7.625-7.625-7.625h-42.175781c-4.210938 0-7.625 3.414062-7.625 7.625 0 4.210937 3.414062 7.621093 7.625 7.621093zm0 0"/><path d="m45.230469 476.167969h42.175781c4.210938 0 7.625-3.410157 7.625-7.621094s-3.414062-7.625-7.625-7.625h-42.175781c-4.210938 0-7.625 3.414063-7.625 7.625s3.414062 7.621094 7.625 7.621094zm0 0"/><path d="m504.378906 360.335938c-4.210937 0-7.625 3.414062-7.625 7.621093v111.769531c0 7.707032-6.269531 13.976563-13.976562 13.976563h-74.191406c-7.707032 0-13.976563-6.269531-13.976563-13.976563v-136.121093c0-7.703125 6.269531-13.972657 13.976563-13.972657h74.191406c6.15625 0 11.675781 4.140626 13.417968 10.070313 1.1875 4.039063 5.429688 6.351563 9.464844 5.160156 4.039063-1.1875 6.351563-5.421875 5.160156-9.460937-3.636718-12.375-15.167968-21.015625-28.039062-21.015625h-29.476562v-75.730469c0-9.703125-7.894532-17.59375-17.59375-17.59375h-172.089844v-68.105469h88.171875c16.113281 0 29.222656-13.109375 29.222656-29.222656v-94.015625c0-16.109375-13.109375-29.21875-29.222656-29.21875h-134.40625c-4.210938 0-7.625 3.414062-7.625 7.621094 0 4.210937 3.414062 7.625 7.625 7.625h134.40625c7.707031 0 13.976562 6.269531 13.976562 13.972656v94.015625c0 7.707031-6.269531 13.976563-13.976562 13.976563h-191.585938c-7.707031 0-13.976562-6.269532-13.976562-13.976563v-94.015625c0-7.703125 6.269531-13.972656 13.976562-13.972656h26.6875c4.210938 0 7.621094-3.414063 7.621094-7.625 0-4.207032-3.410156-7.621094-7.621094-7.621094h-26.6875c-16.113281 0-29.222656 13.109375-29.222656 29.21875v94.015625c0 16.113281 13.109375 29.222656 29.222656 29.222656h88.171875v68.105469h-172.085937c-9.703125 0-17.597657 7.890625-17.597657 17.59375v75.730469h-29.472656c-16.113281 0-29.222656 13.105469-29.222656 29.21875v111.769531c0 4.210938 3.414062 7.621094 7.621094 7.621094 4.210937 0 7.625-3.410156 7.625-7.621094v-111.769531c0-7.703125 6.269531-13.972657 13.976562-13.972657h74.191406c7.707032 0 13.976563 6.269532 13.976563 13.972657v136.121093c0 7.707032-6.269531 13.976563-13.976563 13.976563h-74.191406c-6.15625 0-11.675781-4.144531-13.417968-10.074219-1.1875-4.039062-5.425782-6.347656-9.464844-5.160156-4.039063 1.1875-6.3515628 5.425781-5.160156 9.464844 3.636718 12.371094 15.167968 21.015625 28.039062 21.015625h74.195312c16.113282 0 29.222657-13.109375 29.222657-29.222657v-136.121093c0-16.109375-13.109375-29.21875-29.222657-29.21875h-29.472656v-75.730469c0-1.292969 1.054688-2.347656 2.347656-2.347656h172.085938v78.078125h-29.472656c-16.113282 0-29.222656 13.109375-29.222656 29.21875v136.121093c0 16.113282 13.109374 29.222657 29.222656 29.222657h74.195312c16.113282 0 29.21875-13.109375 29.21875-29.222657v-136.121093c0-16.109375-13.105468-29.21875-29.21875-29.21875h-29.476562v-78.078125h172.085937c1.296875 0 2.351563 1.054687 2.351563 2.347656v75.730469h-29.476563c-16.113281 0-29.21875 13.109375-29.21875 29.21875v136.121093c0 16.113282 13.105469 29.222657 29.21875 29.222657h74.195313c16.113281 0 29.222656-13.109375 29.222656-29.222657v-111.769531c0-4.207031-3.414062-7.621093-7.621094-7.621093zm-211.28125-30.703126c7.707032 0 13.976563 6.269532 13.976563 13.972657v136.121093c0 7.707032-6.269531 13.976563-13.976563 13.976563h-74.195312c-7.707032 0-13.976563-6.269531-13.976563-13.976563v-136.121093c0-7.703125 6.269531-13.972657 13.976563-13.972657zm0 0"/><path d="m466.769531 350.976562h-42.175781c-4.210938 0-7.625 3.414063-7.625 7.625 0 4.207032 3.414062 7.621094 7.625 7.621094h42.175781c4.210938 0 7.625-3.414062 7.625-7.621094 0-4.210937-3.414062-7.625-7.625-7.625zm0 0"/><path d="m466.769531 405.949219h-42.175781c-4.210938 0-7.625 3.414062-7.625 7.625 0 4.210937 3.414062 7.621093 7.625 7.621093h42.175781c4.210938 0 7.625-3.410156 7.625-7.621093 0-4.210938-3.414062-7.625-7.625-7.625zm0 0"/><path d="m466.769531 460.921875h-42.175781c-4.210938 0-7.625 3.414063-7.625 7.625s3.414062 7.621094 7.625 7.621094h42.175781c4.210938 0 7.625-3.410157 7.625-7.621094s-3.414062-7.625-7.625-7.625zm0 0"/><path d="m234.910156 366.222656h42.179688c4.210937 0 7.621094-3.414062 7.621094-7.621094 0-4.210937-3.410157-7.625-7.621094-7.625h-42.179688c-4.210937 0-7.621094 3.414063-7.621094 7.625 0 4.207032 3.410157 7.621094 7.621094 7.621094zm0 0"/><path d="m234.910156 421.195312h42.179688c4.210937 0 7.621094-3.410156 7.621094-7.621093 0-4.210938-3.410157-7.625-7.621094-7.625h-42.179688c-4.210937 0-7.621094 3.414062-7.621094 7.625 0 4.210937 3.410157 7.621093 7.621094 7.621093zm0 0"/><path d="m234.910156 476.167969h42.179688c4.210937 0 7.621094-3.410157 7.621094-7.621094s-3.410157-7.625-7.621094-7.625h-42.179688c-4.210937 0-7.621094 3.414063-7.621094 7.625s3.410157 7.621094 7.621094 7.621094zm0 0"/></svg>