<?xml version="1.0" encoding="UTF-8" standalone="no"?>
<!DOCTYPE svg PUBLIC "-//W3C//DTD SVG 1.1//EN" "http://www.w3.org/Graphics/SVG/1.1/DTD/svg11.dtd">
<svg width="100%" height="100%" viewBox="0 0 2560 1280" version="1.1" xmlns="http://www.w3.org/2000/svg" xmlns:xlink="http://www.w3.org/1999/xlink" xml:space="preserve" xmlns:serif="http://www.serif.com/" style="fill-rule:evenodd;clip-rule:evenodd;stroke-linejoin:round;stroke-miterlimit:1.41421;">
    <g transform="matrix(1,0,0,1,1335.83,0)">
        <g transform="matrix(20,0,0,20,0,0)">
            <path d="M50,4.1C50,2.1 47.9,0 45.7,0L18.3,0C16.1,0 14,2.1 14,4.1L14,59.8C14,61.9 16.1,63.9 18.3,63.9L45.8,63.9C47.9,63.9 50.1,61.8 50.1,59.8L50.1,4.1L50,4.1Z" style="fill:rgb(92,109,109);fill-rule:nonzero;"/>
        </g>
        <g transform="matrix(20,0,0,20,0,0)">
            <path d="M49,59C49,61 47,63 45,63L19,63C17,63 15,61 15,59L15,5C15,3 17,1 19,1L45,1C47,1 49,3 49,5L49,59" style="fill:rgb(33,37,40);fill-rule:nonzero;"/>
        </g>
        <g transform="matrix(20,0,0,20,0,0)">
            <circle cx="43.5" cy="4.5" r="1" style="fill:rgb(148,152,155);"/>
        </g>
        <g transform="matrix(20,0,0,20,0,0)">
            <path d="M35,4.5C35,4.8 34.9,5 34.7,5L29.3,5C29.1,5 29,4.8 29,4.5C29,4.3 29.1,4 29.3,4L34.7,4C34.9,4 35,4.3 35,4.5" style="fill:rgb(148,152,155);fill-rule:nonzero;"/>
        </g>
        <g transform="matrix(20,0,0,20,0,0)">
            <rect x="17" y="8" width="30" height="48" style="fill:rgb(62,67,71);fill-rule:nonzero;"/>
        </g>
        <g transform="matrix(20,0,0,20,0,0)">
            <path d="M35.8,60.2C35.8,60.6 35.5,61 35,61L29,61C28.6,61 28.2,60.7 28.2,60.2L28.2,58.7C28.2,58.3 28.5,57.9 29,57.9L35,57.9C35.4,57.9 35.8,58.2 35.8,58.7L35.8,60.2" style="fill:rgb(148,152,155);fill-rule:nonzero;"/>
        </g>
        <g transform="matrix(20,0,0,20,0,0)">
            <path d="M24,14.7C24,15.2 23.6,15.5 23.2,15.5L19.9,15.5C19.4,15.5 19.1,15.1 19.1,14.7L19.1,11.4C19.1,10.9 19.5,10.6 19.9,10.6L23.2,10.6C23.7,10.6 24,11 24,11.4L24,14.7" style="fill:rgb(66,173,226);fill-rule:nonzero;"/>
        </g>
        <g transform="matrix(20,0,0,20,0,0)">
            <path d="M31,14.7C31,15.2 30.6,15.5 30.2,15.5L26.9,15.5C26.4,15.5 26.1,15.1 26.1,14.7L26.1,11.4C26.1,10.9 26.5,10.6 26.9,10.6L30.2,10.6C30.7,10.6 31,11 31,11.4L31,14.7" style="fill:rgb(199,231,85);fill-rule:nonzero;"/>
        </g>
        <g transform="matrix(20,0,0,20,0,0)">
            <path d="M38,14.7C38,15.2 37.6,15.5 37.2,15.5L33.9,15.5C33.4,15.5 33.1,15.1 33.1,14.7L33.1,11.4C33.1,10.9 33.5,10.6 33.9,10.6L37.2,10.6C37.7,10.6 38,11 38,11.4L38,14.7" style="fill:rgb(242,178,0);fill-rule:nonzero;"/>
        </g>
        <g transform="matrix(20,0,0,20,0,0)">
            <path d="M45,14.7C45,15.2 44.6,15.5 44.2,15.5L40.9,15.5C40.4,15.5 40.1,15.1 40.1,14.7L40.1,11.4C40.1,10.9 40.5,10.6 40.9,10.6L44.2,10.6C44.7,10.6 45,11 45,11.4L45,14.7" style="fill:rgb(66,173,226);fill-rule:nonzero;"/>
        </g>
        <g transform="matrix(20,0,0,20,0,0)">
            <path d="M24,53.2C24,53.7 23.6,54 23.2,54L19.9,54C19.4,54 19.1,53.6 19.1,53.2L19.1,49.9C19.1,49.4 19.5,49.1 19.9,49.1L23.2,49.1C23.7,49.1 24,49.5 24,49.9L24,53.2" style="fill:rgb(199,231,85);fill-rule:nonzero;"/>
        </g>
        <g transform="matrix(20,0,0,20,0,0)">
            <path d="M31,53.2C31,53.7 30.6,54 30.2,54L26.9,54C26.4,54 26.1,53.6 26.1,53.2L26.1,49.9C26.1,49.4 26.5,49.1 26.9,49.1L30.2,49.1C30.7,49.1 31,49.5 31,49.9L31,53.2" style="fill:rgb(255,67,94);fill-rule:nonzero;"/>
        </g>
        <g transform="matrix(20,0,0,20,0,0)">
            <path d="M38,53.2C38,53.7 37.6,54 37.2,54L33.9,54C33.4,54 33.1,53.6 33.1,53.2L33.1,49.9C33.1,49.4 33.5,49.1 33.9,49.1L37.2,49.1C37.7,49.1 38,49.5 38,49.9L38,53.2" style="fill:rgb(66,173,226);fill-rule:nonzero;"/>
        </g>
        <g transform="matrix(20,0,0,20,0,0)">
            <path d="M45,53.2C45,53.7 44.6,54 44.2,54L40.9,54C40.4,54 40.1,53.6 40.1,53.2L40.1,49.9C40.1,49.4 40.5,49.1 40.9,49.1L44.2,49.1C44.7,49.1 45,49.5 45,49.9L45,53.2" style="fill:rgb(194,143,239);fill-rule:nonzero;"/>
        </g>
        <g transform="matrix(20,0,0,20,0,0)">
            <path d="M24,33.9C24,34.4 23.6,34.7 23.2,34.7L19.9,34.7C19.4,34.7 19.1,34.3 19.1,33.9L19.1,30.6C19.1,30.1 19.5,29.8 19.9,29.8L23.2,29.8C23.7,29.8 24,30.2 24,30.6L24,33.9" style="fill:rgb(199,231,85);fill-rule:nonzero;"/>
        </g>
        <g transform="matrix(20,0,0,20,0,0)">
            <path d="M31,33.9C31,34.4 30.6,34.7 30.2,34.7L26.9,34.7C26.4,34.7 26.1,34.3 26.1,33.9L26.1,30.6C26.1,30.1 26.5,29.8 26.9,29.8L30.2,29.8C30.7,29.8 31,30.2 31,30.6L31,33.9" style="fill:rgb(194,143,239);fill-rule:nonzero;"/>
        </g>
        <g transform="matrix(20,0,0,20,0,0)">
            <path d="M38,33.9C38,34.4 37.6,34.7 37.2,34.7L33.9,34.7C33.4,34.7 33.1,34.3 33.1,33.9L33.1,30.6C33.1,30.1 33.5,29.8 33.9,29.8L37.2,29.8C37.7,29.8 38,30.2 38,30.6L38,33.9" style="fill:rgb(66,173,226);fill-rule:nonzero;"/>
        </g>
        <g transform="matrix(20,0,0,20,0,0)">
            <path d="M24,27.5C24,28 23.6,28.3 23.2,28.3L19.9,28.3C19.4,28.3 19.1,27.9 19.1,27.5L19.1,24.2C19.1,23.7 19.5,23.4 19.9,23.4L23.2,23.4C23.7,23.4 24,23.8 24,24.2L24,27.5" style="fill:rgb(255,67,94);fill-rule:nonzero;"/>
        </g>
        <g transform="matrix(20,0,0,20,0,0)">
            <path d="M31,27.5C31,28 30.6,28.3 30.2,28.3L26.9,28.3C26.4,28.3 26.1,27.9 26.1,27.5L26.1,24.2C26.1,23.7 26.5,23.4 26.9,23.4L30.2,23.4C30.7,23.4 31,23.8 31,24.2L31,27.5" style="fill:rgb(242,178,0);fill-rule:nonzero;"/>
        </g>
        <g transform="matrix(20,0,0,20,0,0)">
            <path d="M38,27.5C38,28 37.6,28.3 37.2,28.3L33.9,28.3C33.4,28.3 33.1,27.9 33.1,27.5L33.1,24.2C33.1,23.7 33.5,23.4 33.9,23.4L37.2,23.4C37.7,23.4 38,23.8 38,24.2L38,27.5" style="fill:rgb(199,231,85);fill-rule:nonzero;"/>
        </g>
        <g transform="matrix(20,0,0,20,0,0)">
            <path d="M45,27.5C45,28 44.6,28.3 44.2,28.3L40.9,28.3C40.4,28.3 40.1,27.9 40.1,27.5L40.1,24.2C40.1,23.7 40.5,23.4 40.9,23.4L44.2,23.4C44.7,23.4 45,23.8 45,24.2L45,27.5" style="fill:rgb(242,178,0);fill-rule:nonzero;"/>
        </g>
        <g transform="matrix(20,0,0,20,0,0)">
            <path d="M24,21.1C24,21.6 23.6,21.9 23.2,21.9L19.9,21.9C19.4,21.9 19.1,21.5 19.1,21.1L19.1,17.8C19.1,17.3 19.5,17 19.9,17L23.2,17C23.7,17 24,17.4 24,17.8L24,21.1" style="fill:rgb(194,143,239);fill-rule:nonzero;"/>
        </g>
        <g transform="matrix(20,0,0,20,0,0)">
            <path d="M31,21.1C31,21.6 30.6,21.9 30.2,21.9L26.9,21.9C26.4,21.9 26.1,21.5 26.1,21.1L26.1,17.8C26.1,17.3 26.5,17 26.9,17L30.2,17C30.7,17 31,17.4 31,17.8L31,21.1" style="fill:rgb(66,173,226);fill-rule:nonzero;"/>
        </g>
        <g transform="matrix(20,0,0,20,0,0)">
            <path d="M38,21.1C38,21.6 37.6,21.9 37.2,21.9L33.9,21.9C33.4,21.9 33.1,21.5 33.1,21.1L33.1,17.8C33.1,17.3 33.5,17 33.9,17L37.2,17C37.7,17 38,17.4 38,17.8L38,21.1" style="fill:rgb(255,67,94);fill-rule:nonzero;"/>
        </g>
        <g transform="matrix(20,0,0,20,0,0)">
            <path d="M45,21.1C45,21.6 44.6,21.9 44.2,21.9L40.9,21.9C40.4,21.9 40.1,21.5 40.1,21.1L40.1,17.8C40.1,17.3 40.5,17 40.9,17L44.2,17C44.7,17 45,17.4 45,17.8L45,21.1" style="fill:rgb(194,143,239);fill-rule:nonzero;"/>
        </g>
    </g>
    <g transform="matrix(1,0,0,1,182.172,0)">
        <g transform="matrix(20,0,0,20,0,0)">
            <path d="M58,21.2C61.9,18.6 62,14.8 62,14.8C58.1,14.6 58.2,10.6 54.6,7C47.7,0 34.1,2.3 32,5.5C29.9,2.3 16.3,0 9.4,7C5.8,10.7 5.9,14.7 2,14.8C2,14.8 2.1,18.6 6,21.2C6,21.2 1.9,27.1 2.6,35.3C2.6,35.3 4.2,31.3 8.1,30.6C3.6,34.4 7.2,45 3.9,48.8C3.9,48.8 8.5,46.8 10.4,45.5C9.7,51.4 11.3,53.7 11.3,56.6C15.4,55.3 17,49.2 17,49.2C17,56.7 19.6,56.4 19.6,60.4C19.6,60.4 25.1,57.7 27,53.9C27.7,57.4 30.3,59.8 32.2,62C34.1,59.8 36.6,57.4 37.4,53.9C39.3,57.6 44.8,60.4 44.8,60.4C44.8,56.4 47.4,56.7 47.4,49.2C47.4,49.2 49,55.2 53.1,56.6C53.1,53.7 54.7,51.4 54,45.5C55.9,46.8 60.5,48.8 60.5,48.8C57.2,44.9 60.8,34.3 56.3,30.6C60.1,31.4 61.8,35.3 61.8,35.3C62.1,27 58,21.2 58,21.2" style="fill:rgb(69,71,73);fill-rule:nonzero;"/>
        </g>
        <g transform="matrix(20,0,0,20,0,0)">
            <path d="M52.1,31.9C52.1,37.4 46.6,40.5 46.6,47C46.6,56 36.7,48.5 32.1,48.5C27.3,48.5 17.3,55.9 17.3,46.8C17.3,40.5 12,37.3 12,31.9C12,29.4 14.7,26.2 14.8,24.1C15,20.3 12.5,16.3 12.7,13.9C13.5,1 32,20 32,20C32,20 50.5,1 51.4,14.1C51.6,16.4 49.1,20.5 49.2,24.2C49.4,26.2 52.1,29.4 52.1,31.9" style="fill:rgb(244,103,103);fill-rule:nonzero;"/>
        </g>
        <g transform="matrix(20,0,0,20,0,0)">
            <path d="M23.1,9.3C19.2,7.2 16.6,2 16.6,2C16.6,2 12.3,16.8 22,17C25.2,17 27.7,11.7 23.1,9.3" style="fill:rgb(255,206,49);fill-rule:nonzero;"/>
        </g>
        <g transform="matrix(20,0,0,20,0,0)">
            <path d="M40.9,9.3C44.8,7.2 47.4,2 47.4,2C47.4,2 51.7,16.8 41.9,17C38.8,17 36.3,11.7 40.9,9.3" style="fill:rgb(255,206,49);fill-rule:nonzero;"/>
        </g>
        <g transform="matrix(20,0,0,20,0,0)">
            <path d="M15.2,31.9C12.2,37.1 18.3,39.4 18.3,43.7C18.3,53.3 24.4,46.4 32,46.4C39.6,46.4 45.7,53.4 45.7,43.7C45.7,39.3 51.9,37.2 48.8,31.9C46.1,27.1 46.9,37.7 32,37.7C17,37.7 18,27.1 15.2,31.9" style="fill:rgb(69,71,73);fill-rule:nonzero;"/>
        </g>
        <g transform="matrix(20,0,0,20,0,0)">
            <path d="M17.4,32.8C17.1,32.8 16.8,32.9 16.5,33L16.3,33.1C10.4,36.3 9.3,36.9 9.6,37.8C9.7,38.4 10.5,38.4 10.9,38.4C12.1,38.4 14.4,38 17.9,37.5C19,37.3 19.7,36.4 19.6,35.2C19.3,34 18.5,32.8 17.4,32.8" style="fill:white;fill-rule:nonzero;"/>
        </g>
        <g transform="matrix(20,0,0,20,0,0)">
            <path d="M47.7,33.2L47.5,33.1C47.2,32.9 46.9,32.9 46.6,32.9C45.4,32.9 44.7,34.1 44.6,35.2C44.5,36.4 45.1,37.3 46.3,37.5C49.8,38.1 52.1,38.4 53.3,38.4C53.7,38.4 54.4,38.4 54.5,37.8C54.7,37 53.6,36.4 47.7,33.2" style="fill:white;fill-rule:nonzero;"/>
        </g>
        <g transform="matrix(20,0,0,20,0,0)">
            <path d="M42,44.9C40,46.1 42.8,49.5 44.4,47.7C51.8,39.1 50.7,39.8 42,44.9" style="fill:white;fill-rule:nonzero;"/>
        </g>
        <g transform="matrix(20,0,0,20,0,0)">
            <path d="M19.6,47.7C21.2,49.6 24.1,46.1 22,44.9C13.3,39.8 12.3,39.1 19.6,47.7" style="fill:white;fill-rule:nonzero;"/>
        </g>
        <g transform="matrix(20,0,0,20,0,0)">
            <path d="M24.6,38.8C26.1,37.5 22.2,35.8 21.4,37.5C17.4,45.2 18.2,44.5 24.6,38.8" style="fill:white;fill-rule:nonzero;"/>
        </g>
        <g transform="matrix(20,0,0,20,0,0)">
            <path d="M42.6,37.5C41.7,35.8 37.9,37.5 39.4,38.8C45.8,44.5 46.6,45.2 42.6,37.5" style="fill:white;fill-rule:nonzero;"/>
        </g>
        <g transform="matrix(20,0,0,20,0,0)">
            <path d="M40.4,46.2C39.8,46.6 37.8,46.6 37.2,46.2C36.6,45.8 36.7,44.2 37.2,43.7C37.8,43.2 39.8,43.2 40.4,43.7C40.9,44.1 41,45.8 40.4,46.2" style="fill:white;fill-rule:nonzero;"/>
        </g>
        <g transform="matrix(20,0,0,20,0,0)">
            <path d="M26.8,46.2C26.2,46.6 24.2,46.6 23.6,46.2C23,45.8 23.1,44.2 23.6,43.7C24.2,43.2 26.2,43.2 26.8,43.7C27.3,44.1 27.4,45.8 26.8,46.2" style="fill:white;fill-rule:nonzero;"/>
        </g>
        <g transform="matrix(20,0,0,20,0,0)">
            <path d="M35.7,45.3C34.4,46.1 29.7,46.1 28.3,45.3C27.6,44.9 28.3,43.4 28.9,43C30.2,42.2 33.8,42.2 35.2,43C35.8,43.4 36.4,44.9 35.7,45.3" style="fill:rgb(188,46,46);fill-rule:nonzero;"/>
        </g>
        <g transform="matrix(20,0,0,20,0,0)">
            <path d="M26.3,37.9C28.5,38.8 35.3,38.9 37.7,37.9C38.9,37.7 38.7,39.2 37.7,39.9C35.8,41.8 28.2,41.8 26.4,39.9C25.3,39.2 25.2,37.8 26.3,37.9" style="fill:white;fill-rule:nonzero;"/>
        </g>
        <g transform="matrix(20,0,0,20,0,0)">
            <path d="M28,25C28,29.8 17.4,29.8 17.4,25C17.4,18.5 28,18.5 28,25" style="fill:white;fill-rule:nonzero;"/>
        </g>
        <g transform="matrix(20,0,0,20,0,0)">
            <path d="M24.9,25C24.9,27.9 20.5,27.9 20.5,25C20.5,22.1 24.9,22.1 24.9,25" style="fill:rgb(69,71,73);fill-rule:nonzero;"/>
        </g>
        <g transform="matrix(20,0,0,20,0,0)">
            <path d="M46.6,25C46.6,29.8 36,29.8 36,25C36,18.5 46.6,18.5 46.6,25" style="fill:white;fill-rule:nonzero;"/>
        </g>
        <g transform="matrix(20,0,0,20,0,0)">
            <path d="M43.5,25C43.5,27.9 39.1,27.9 39.1,25C39.1,22.1 43.5,22.1 43.5,25" style="fill:rgb(69,71,73);fill-rule:nonzero;"/>
        </g>
        <g transform="matrix(20,0,0,20,0,0)">
            <path d="M11.7,17.5C11.7,17.5 17.5,19.7 22.4,23.4C28.1,27.7 30.9,24.8 28.4,21.8C26.6,19.4 20.9,15.6 11.7,17.5" style="fill:rgb(69,71,73);fill-rule:nonzero;"/>
        </g>
        <g transform="matrix(20,0,0,20,0,0)">
            <path d="M35.6,21.7C33.1,24.8 36,27.6 41.6,23.3C46.5,19.6 52.3,17.4 52.3,17.4C43.1,15.6 37.4,19.4 35.6,21.7" style="fill:rgb(69,71,73);fill-rule:nonzero;"/>
        </g>
        <g transform="matrix(20,0,0,20,0,0)">
            <path d="M35.9,31.4C35.6,30.1 34.7,25.3 34.7,24.2C34.9,20.4 29.1,20.4 29.3,24.2C29.4,25.3 28.4,30.1 28.1,31.4C24.8,31.1 23,35.3 27.8,35.3C29.7,35.3 30.1,37 32,37C33.9,37 34.3,35.3 36.2,35.3C40.9,35.3 39.1,31.1 35.9,31.4" style="fill:rgb(188,46,46);fill-rule:nonzero;"/>
        </g>
    </g>
</svg>
